<?xml version="1.0" standalone="no"?>
<!DOCTYPE svg PUBLIC "-//W3C//DTD SVG 1.1//EN" "http://www.w3.org/Graphics/SVG/1.1/DTD/svg11.dtd" >
<svg>
<metadata>
Created by FontForge 20110222 at Thu Feb 27 18:03:01 2014
 By Orthosie Webhosting
(c) Copyright 2001 by Tom Truong. All Rights Reserved
</metadata>
<defs>
<font id="UVNThanhPho" horiz-adv-x="512" >
  <font-face 
    font-family="UVN Thanh Pho"
    font-weight="400"
    font-stretch="normal"
    units-per-em="2048"
    panose-1="2 6 5 6 4 7 6 7 2 3"
    ascent="1638"
    descent="-410"
    x-height="874"
    cap-height="1365"
    bbox="-325 -512 1794 2028"
    underline-thickness="109"
    underline-position="-110"
    unicode-range="U+0020-F002"
  />
<missing-glyph horiz-adv-x="1024" 
d="M128 0v2028h768v-2028h-768zM256 128h512v1772h-512v-1772z" />
    <glyph glyph-name=".notdef" horiz-adv-x="1024" 
d="M128 0v2028h768v-2028h-768zM256 128h512v1772h-512v-1772z" />
    <glyph glyph-name=".null" horiz-adv-x="0" 
 />
    <glyph glyph-name="nonmarkingreturn" 
 />
    <glyph glyph-name="space" unicode=" " 
 />
    <glyph glyph-name="exclam" unicode="!" horiz-adv-x="416" 
d="M150 1365h116v-978h-116v978zM208 150q34 0 58 -23.5t24 -57.5q0 -36 -24 -59.5t-60 -23.5q-33 0 -56.5 24.5t-23.5 57.5q0 34 24 58t58 24z" />
    <glyph glyph-name="quotedbl" unicode="&#x22;" horiz-adv-x="513" 
d="M202 730h-93v581h93v-581zM404 730h-93v581h93v-581z" />
    <glyph glyph-name="numbersign" unicode="#" horiz-adv-x="985" 
d="M211 109l39 315h-168v96h179l34 272h-178v96h190l38 313h110l-38 -313h208l38 313h110l-38 -313h168v-96h-180l-34 -272h178v-96h-189l-39 -315h-110l39 315h-208l-39 -315h-110zM405 792l-34 -272h209l33 272h-208z" />
    <glyph glyph-name="dollar" unicode="$" horiz-adv-x="961" 
d="M434 109v495h-174q-163 0 -163 186v330q0 119 68 161q49 31 163 31h52q36 -1 54 -1v136h108v-136h323v-341h-123v232h-200v-489q19 0 56 1t56 1q109 0 158 -30q67 -42 67 -154v-342q0 -117 -70 -160q-50 -30 -164 -30h-51q-35 1 -52 1v-137h-108v137h-337v341h123v-232
h214zM542 109h82q78 0 100 26q18 23 18 104v256q0 71 -33 93q-25 16 -96 16h-71v-495zM434 1202h-75q-78 0 -104 -33q-21 -28 -21 -105v-199q0 -72 3 -88q10 -51 52 -60q15 -4 74 -4h71v489z" />
    <glyph glyph-name="percent" unicode="%" horiz-adv-x="1303" 
d="M491 1190v-427q0 -121 -137 -121h-146q-136 0 -136 121v427q0 121 136 121h146q137 0 137 -121zM338 1237h-113q-64 0 -64 -65v-391q0 -65 64 -65h113q64 0 64 65v391q0 65 -64 65zM1106 1338l-829 -1338h-80l829 1338h80zM1231 548v-427q0 -121 -137 -121h-146
q-136 0 -136 121v427q0 121 136 121h146q137 0 137 -121zM1078 595h-113q-64 0 -64 -65v-391q0 -65 64 -65h113q64 0 64 65v391q0 65 -64 65z" />
    <glyph glyph-name="ampersand" unicode="&#x26;" horiz-adv-x="1195" 
d="M1062 -3l-244 288l-278 -235q-75 -63 -121 -63q-63 0 -124 74l-174 210q-53 64 -53 123q0 71 76 135l273 230l-174 196v198q0 73 7 102q23 97 182 97h167q101 0 145 -45t44 -147v-253l-199 -158l243 -289l201 169l81 -90l-203 -174l242 -288zM736 377l-242 291l-243 -211
q-51 -44 -51 -69q0 -30 28 -63l124 -148q40 -48 69 -48q28 0 73 39zM510 839l148 125v162q0 68 -12 88q-17 29 -78 29h-102q-58 0 -78 -29q-15 -23 -15 -81v-126z" />
    <glyph glyph-name="quotesingle" unicode="'" horiz-adv-x="311" 
d="M202 730h-93v581h93v-581z" />
    <glyph glyph-name="parenleft" unicode="(" horiz-adv-x="457" 
d="M392 1553v-104q-112 -89 -154 -195q-36 -92 -36 -249v-645q0 -156 36 -248q42 -106 154 -196v-104q-279 161 -279 537v667q0 377 279 537z" />
    <glyph glyph-name="parenright" unicode=")" horiz-adv-x="457" 
d="M68 -188v104q112 90 154 196q36 92 36 248v645q0 156 -36 248q-42 107 -154 196v104q279 -160 279 -537v-667q0 -377 -279 -537z" />
    <glyph glyph-name="asterisk" unicode="*" horiz-adv-x="670" 
d="M246 1075l-185 107l44 76l185 -106v213h89v-213l185 106l44 -76l-185 -107l185 -107l-44 -76l-185 106v-213h-89v213l-185 -106l-44 76z" />
    <glyph glyph-name="plus" unicode="+" horiz-adv-x="806" 
d="M348 710v266h109v-266h267v-109h-267v-266h-109v266h-266v109h266z" />
    <glyph glyph-name="comma" unicode="," horiz-adv-x="421" 
d="M14 -326l192 514h92l-193 -514h-91z" />
    <glyph glyph-name="hyphen" unicode="-" horiz-adv-x="369" 
d="M0 396v82h369v-82h-369z" />
    <glyph glyph-name="hyphen" unicode="&#x2010;" horiz-adv-x="369" 
d="M0 396v82h369v-82h-369z" />
    <glyph glyph-name="period" unicode="." horiz-adv-x="328" 
d="M164 150q34 0 58 -23.5t24 -57.5q0 -36 -24 -59.5t-60 -23.5q-33 0 -56.5 24.5t-23.5 57.5q0 34 24 58t58 24z" />
    <glyph glyph-name="slash" unicode="/" horiz-adv-x="763" 
d="M14 -75l652 1515h84l-656 -1515h-80z" />
    <glyph glyph-name="zero" unicode="0" horiz-adv-x="971" 
d="M862 1083v-855q0 -58 -11 -93q-45 -135 -228 -135h-275q-239 0 -239 228v855q0 58 12 94q44 134 227 134h275q239 0 239 -228zM592 1202h-213q-140 0 -140 -156v-781q0 -156 140 -156h213q140 0 140 156v781q0 156 -140 156z" />
    <glyph glyph-name="one" unicode="1" horiz-adv-x="617" 
d="M175 0v109h123v1031l-236 -205v131l285 245h73v-1202h122v-109h-367z" />
    <glyph glyph-name="two" unicode="2" horiz-adv-x="921" 
d="M89 0v283q0 83 27 128q24 40 96 88l490 327v239q0 137 -134 137h-222q-127 0 -127 -139v-162h-130v173q0 237 252 237h251q99 0 166 -52q74 -57 74 -153v-359l-560 -366q-53 -35 -53 -127v-145h493v232h116v-341h-739z" />
    <glyph glyph-name="three" unicode="3" horiz-adv-x="914" 
d="M82 346h130v-105q0 -67 16 -95q22 -37 84 -37h253q78 0 105 33q25 30 25 111v261q0 77 -28.5 106.5t-105.5 29.5h-234v68l359 484h-469v-305h-116v414h701v-136l-311 -416h108q226 0 226 -208v-306q0 -245 -230 -245h-253q-133 0 -190 39q-70 48 -70 174v133z" />
    <glyph glyph-name="four" unicode="4" horiz-adv-x="870" 
d="M563 0v340h-515v112l487 859h150v-862h131v-109h-131v-340h-122zM563 449v702l-398 -702h398z" />
    <glyph glyph-name="five" unicode="5" horiz-adv-x="928" 
d="M99 329h116q0 -124 12 -155q26 -65 128 -65h224q82 0 111 31.5t29 114.5v294q0 131 -141 131h-429v631h654v-109h-524v-413h321q249 0 249 -226v-333q0 -230 -261 -230h-230q-259 0 -259 254v75z" />
    <glyph glyph-name="six" unicode="6" horiz-adv-x="940" 
d="M839 993h-116v78q0 131 -161 131h-173q-143 0 -143 -154v-367q49 76 151 76h236q225 0 225 -243v-253q0 -142 -64.5 -201.5t-207.5 -59.5h-195q-275 0 -275 251v806q0 254 230 254h256q237 0 237 -237v-81zM407 109h170q90 0 120.5 31.5t30.5 121.5v233q0 82 -30.5 117.5
t-111.5 35.5h-186q-154 0 -154 -137v-236q0 -95 33.5 -130.5t127.5 -35.5z" />
    <glyph glyph-name="seven" unicode="7" horiz-adv-x="837" 
d="M189 650v93h273l197 459h-495v-301h-116v410h742v-109l-197 -459h108v-93h-148l-278 -650h-131l278 650h-233z" />
    <glyph glyph-name="eight" unicode="8" horiz-adv-x="927" 
d="M255 711q-86 42 -114 80q-35 45 -35 133v165q0 222 248 222h249q98 0 161 -54q67 -57 67 -154v-189q0 -82 -41 -129q-33 -37 -116 -74q86 -33 120 -79q37 -50 37 -139v-246q0 -247 -262 -247h-210q-85 0 -123 10q-140 36 -140 234v251q0 86 41 136q33 41 118 80zM354 109
h222q125 0 125 152v246q0 149 -132 149h-193q-150 0 -150 -157v-247q0 -143 128 -143zM374 765h196q131 0 131 138v185q0 114 -132 114h-184q-149 0 -149 -118v-160q0 -159 138 -159z" />
    <glyph glyph-name="nine" unicode="9" horiz-adv-x="940" 
d="M111 318h116v-78q0 -131 161 -131h173q143 0 143 154v367q-37 -46 -65 -60q-31 -16 -89 -16h-233q-225 0 -225 243v253q0 142 66 203q63 58 207 58h194q275 0 275 -251v-806q0 -254 -230 -254h-256q-237 0 -237 237v81zM543 1202h-170q-90 0 -120.5 -31.5t-30.5 -121.5
v-233q0 -82 30 -116q31 -37 112 -37h186q154 0 154 137v236q0 95 -33.5 130.5t-127.5 35.5z" />
    <glyph glyph-name="colon" unicode=":" horiz-adv-x="328" 
d="M164 888q34 0 58 -23.5t24 -57.5q0 -36 -24 -59.5t-60 -23.5q-33 0 -56.5 24.5t-23.5 57.5q0 34 24 58t58 24zM164 150q34 0 58 -23.5t24 -57.5q0 -36 -24 -59.5t-60 -23.5q-33 0 -56.5 24.5t-23.5 57.5q0 34 24 58t58 24z" />
    <glyph glyph-name="semicolon" unicode=";" horiz-adv-x="455" 
d="M14 -326l192 514h92l-193 -514h-91zM291 519q34 0 58 -23.5t24 -57.5q0 -36 -24 -59.5t-60 -23.5q-33 0 -56.5 24.5t-23.5 57.5q0 34 24 58t58 24z" />
    <glyph glyph-name="less" unicode="&#x3c;" horiz-adv-x="1024" 
d="M955 1146v-125l-753 -338l753 -338v-125l-887 408v110z" />
    <glyph glyph-name="equal" unicode="=" horiz-adv-x="806" 
d="M82 478v109h642v-109h-642zM82 724v109h642v-109h-642z" />
    <glyph glyph-name="greater" unicode="&#x3e;" horiz-adv-x="1024" 
d="M69 1146l887 -408v-110l-887 -408v125l753 338l-753 338v125z" />
    <glyph glyph-name="question" unicode="?" horiz-adv-x="805" 
d="M227 389v347h292q75 0 75 90v336q0 94 -85 94h-212q-59 0 -79 -21t-20 -81v-124h-116v191q0 144 158 144h317q167 0 167 -167v-400q0 -171 -173 -171h-208v-238h-116zM288 150q34 0 58 -23.5t24 -57.5q0 -36 -24 -59.5t-60 -23.5q-33 0 -56.5 24.5t-23.5 57.5q0 34 24 58
t58 24z" />
    <glyph glyph-name="at" unicode="@" horiz-adv-x="1065" 
d="M865 279h90v-65q0 -214 -215 -214h-419q-212 0 -212 205v939q0 182 122 213q34 8 119 8h387q117 0 167.5 -53.5t50.5 -171.5v-582q0 -214 -215 -214h-286q-150 0 -150 169v339q0 158 146 158h299v-581q80 1 103 57q13 32 13 129v532q0 83 -19 109q-24 34 -104 34h-409
q-77 0 -105.5 -29.5t-28.5 -107.5v-901q0 -101 20 -133q28 -44 121 -44h381q102 0 128 55q16 32 16 149zM649 429v496h-175q-68 0 -68 -75v-353q0 -68 68 -68h175z" />
    <glyph glyph-name="A" unicode="A" horiz-adv-x="1168" 
d="M14 0v115l131 -5l331 1255h231l317 -1255l131 5v-115h-403v115l131 -5l-94 365h-406l-96 -365l131 5v-115h-404zM410 585h356l-177 675z" />
    <glyph glyph-name="B" unicode="B" horiz-adv-x="1089" 
d="M89 0v114l131 -4v1145l-131 -4v114h626q142 0 192 -40q59 -47 59 -186v-257q0 -88 -34 -126t-122 -50q95 -16 128 -44q42 -35 42 -124v-319q0 -136 -51 -177.5t-222 -41.5h-618zM358 110h363q65 0 89 16q32 21 32 86v328q0 69 -33 91q-26 16 -100 16h-351v-537zM358 757
h313q76 0 111 21q46 27 46 101v260q0 74 -32 97q-25 19 -98 19h-340v-498z" />
    <glyph glyph-name="C" unicode="C" horiz-adv-x="965" 
d="M876 0h-541q-121 0 -172 44q-54 47 -54 167v945q0 116 62 165q55 44 174 44h516v-341h-123v232h-383q-70 0 -92 -34q-17 -25 -17 -95v-908q0 -69 33 -92q25 -18 94 -18h380v232h123v-341z" />
    <glyph glyph-name="D" unicode="D" horiz-adv-x="1094" 
d="M220 1255l-131 -4v114h624q154 0 212 -53q60 -56 60 -210v-838q0 -89 -13 -134q-40 -130 -264 -130h-619v114l131 -4v1145zM358 110h362q71 0 99 32t28 104v867q0 48 -4 67q-16 75 -123 75h-362v-1145z" />
    <glyph glyph-name="E" unicode="E" horiz-adv-x="1044" 
d="M89 0v114l131 -4v1145l-131 -4v114h868v-338h-124v228h-475v-503h433v-110h-433v-532h475v228h124v-338h-868z" />
    <glyph glyph-name="F" unicode="F" horiz-adv-x="944" 
d="M89 0v115l131 -5v1145l-131 -4v114h814v-345h-124v235h-421v-507h427v-110h-427v-528l131 5v-115h-400z" />
    <glyph glyph-name="G" unicode="G" horiz-adv-x="970" 
d="M881 0h-542q-123 0 -172 36q-58 43 -58 162v990q0 177 190 177h570v-341h-123v232h-380q-62 0 -87 -17q-33 -22 -33 -83v-948q0 -99 99 -99h399v518h-272v109h409v-736z" />
    <glyph glyph-name="H" unicode="H" horiz-adv-x="1189" 
d="M89 0v113l130 -4v1147l-130 -4v113h396v-113l-129 4v-500h478v500l-129 -4v113h396v-113l-130 4v-1147l130 4v-113h-396v113l129 -4v538h-478v-538l129 4v-113h-396z" />
    <glyph glyph-name="I" unicode="I" horiz-adv-x="573" 
d="M89 0v113l130 -4v1147l-130 -4v113h396v-113l-129 4v-1147l129 4v-113h-396z" />
    <glyph glyph-name="J" unicode="J" horiz-adv-x="640" 
d="M46 0v109h154q61 0 87 23t26 83v1041l-129 -4v113h396v-113l-130 4v-1055q0 -201 -248 -201h-156z" />
    <glyph glyph-name="K" unicode="K" horiz-adv-x="1124" 
d="M89 0v113l131 -4v1147l-131 -4v113h397v-113l-129 4v-566l417 566l-129 -4v113h399v-113l-130 4l-386 -514h224q189 0 189 -198v-435l123 4v-113h-382v113l122 -4v394q0 75 -20 100q-25 30 -101 30h-326v-524l129 4v-113h-397z" />
    <glyph glyph-name="L" unicode="L" horiz-adv-x="909" 
d="M89 0v113l130 -4v1147l-130 -4v113h396v-113l-129 4v-1147h389v232h123v-341h-779z" />
    <glyph glyph-name="M" unicode="M" horiz-adv-x="1499" 
d="M89 0v113l130 -4v1147l-130 -4v113h308l301 -724q35 -83 50 -160q19 100 48 169l301 715h313v-113l-129 4v-1147l129 4v-113h-396v114l130 -5v843q0 4 11 263q-21 -88 -45 -142l-314 -719h-98l-301 706q-37 86 -58 164q17 -175 17 -235v-880l129 4v-113h-396z" />
    <glyph glyph-name="N" unicode="N" horiz-adv-x="1256" 
d="M89 0v113l130 -4v1147l-130 -4l3 113h280l439 -911q80 -166 113 -270q-23 167 -23 301v771l-129 -4v113h396v-113l-130 4v-1256h-153l-454 942q-29 59 -95 239q20 -216 20 -261v-811l128 4v-113h-395z" />
    <glyph glyph-name="O" unicode="O" horiz-adv-x="996" 
d="M109 204v940q0 182 121 213q34 8 120 8h318q118 0 168.5 -53t50.5 -172v-926q0 -214 -215 -214h-351q-212 0 -212 204zM387 109h220q96 0 124 47q19 33 19 139v829q0 74 -22 101q-25 31 -101 31h-247q-78 0 -106 -29.5t-28 -108.5v-832q0 -101 20 -133q28 -44 121 -44z
" />
    <glyph glyph-name="P" unicode="P" horiz-adv-x="995" 
d="M90 0v113l129 -4v1147l-130 -4v113h604q87 0 114 -5q133 -28 133 -182v-333q0 -204 -226 -204h-358v-532l127 4v-113h-393zM356 750h329q77 0 100 35q18 25 18 102v252q0 71 -32 96q-27 21 -98 21h-317v-506z" />
    <glyph glyph-name="Q" unicode="Q" horiz-adv-x="996" 
d="M561 -132h-123v132h-117q-212 0 -212 205v939q0 182 121 213q34 8 120 8h318q118 0 168.5 -53t50.5 -172v-926q0 -214 -215 -214h-111v-132zM561 345v-236h45q94 0 122 43q22 33 22 134v836q0 75 -20 101q-26 33 -103 33h-248q-78 0 -105.5 -30t-27.5 -108v-850
q0 -90 22 -120q28 -39 118 -39h52v236h123z" />
    <glyph glyph-name="R" unicode="R" horiz-adv-x="1149" 
d="M89 1252v113h656q212 0 212 -183v-312q0 -74 -34 -108q-27 -28 -105 -51q92 -20 122 -56t30 -129v-417l130 4v-113h-396v113l129 -4v419q0 81 -29 106q-25 22 -104 22h-343v-547l133 4v-113h-399v113l129 -4v1147zM357 765h326q75 0 102 17q35 22 35 92v284q0 62 -43 83
q-29 15 -99 15h-321v-491z" />
    <glyph glyph-name="S" unicode="S" horiz-adv-x="958" 
d="M96 0v341h123v-232h404q78 0 100 26q18 23 18 104v297q0 71 -33 93q-25 16 -96 16h-353q-163 0 -163 186v343q0 112 57 155q49 36 166 36h545v-341h-123v232h-383q-78 0 -104 -34q-21 -27 -21 -104v-245q0 -84 30 -104q21 -15 108 -15h285q115 0 163 -33q59 -40 59 -149
v-383q0 -111 -59 -154q-50 -35 -167 -35h-556z" />
    <glyph glyph-name="T" unicode="T" horiz-adv-x="969" 
d="M238 0v113l178 -4v1147h-245v-301h-123v410h874v-410h-123v301h-246v-1147l177 4v-113h-492z" />
    <glyph glyph-name="U" unicode="U" horiz-adv-x="1158" 
d="M55 1365h396v-113l-129 4v-1010q0 -82 27.5 -109.5t109.5 -27.5h258q69 0 94.5 28t25.5 98v1021l-130 -4v113h396v-113l-129 4v-1034q0 -118 -50.5 -170t-167.5 -52h-366q-205 0 -205 232v1024l-130 -4v113z" />
    <glyph glyph-name="V" unicode="V" horiz-adv-x="1145" 
d="M14 1365h395v-113l-130 4l242 -908q32 -119 56 -230q15 79 50 235l233 903l-130 -4v113h401v-113l-130 4l-330 -1256h-187l-340 1256l-130 -4v113z" />
    <glyph glyph-name="W" unicode="W" horiz-adv-x="1560" 
d="M14 1365h390v-113l-130 4l157 -849q17 -88 42 -266q7 94 38 267l173 957h191l180 -953q31 -167 40 -271q12 123 39 272l154 843l-130 -4v113h388v-113l-130 4l-230 -1256h-183l-188 990q-27 142 -35 240q-7 -87 -35 -240l-182 -990h-184l-235 1256l-130 -4v113z" />
    <glyph glyph-name="X" unicode="X" horiz-adv-x="1101" 
d="M51 0v113l130 -4l294 588l-294 559l-130 -4v113h404v-113l-129 4l220 -428l212 428l-130 -4v113h403v-113l-130 4l-288 -559l308 -588l129 4v-113h-402v113l130 -4l-232 461l-233 -461l130 4v-113h-392z" />
    <glyph glyph-name="Y" unicode="Y" horiz-adv-x="1107" 
d="M361 0v113l130 -4v521l-347 626l-130 -4v113h415v-113l-130 4l257 -494l255 494l-129 -4v113h412v-113l-130 4l-336 -626v-521l129 4v-113h-396z" />
    <glyph glyph-name="Z" unicode="Z" horiz-adv-x="962" 
d="M58 0v94l667 1162h-504v-232h-123v341h806v-89l-675 -1167h552v232h123v-341h-846z" />
    <glyph glyph-name="bracketleft" unicode="[" horiz-adv-x="464" 
d="M396 1532v-81h-130q-44 0 -56 -14.5t-12 -53.5v-1395q0 -44 14.5 -56t53.5 -12h130v-81h-156q-131 0 -131 124v1445q0 124 131 124h156z" />
    <glyph glyph-name="backslash" unicode="\" horiz-adv-x="763" 
d="M750 -75h-80l-656 1515h84z" />
    <glyph glyph-name="bracketright" unicode="]" horiz-adv-x="464" 
d="M68 -161v81h130q44 0 56 14.5t12 53.5v1395q0 44 -14.5 56t-53.5 12h-130v81h156q131 0 131 -124v-1445q0 -124 -131 -124h-156z" />
    <glyph glyph-name="asciicircum" unicode="^" horiz-adv-x="1024" 
d="M194 778h-122l368 590h144l368 -590h-124l-318 503z" />
    <glyph glyph-name="underscore" unicode="_" horiz-adv-x="1024" 
d="M0 -218v109h1024v-109h-1024z" />
    <glyph glyph-name="grave" unicode="`" horiz-adv-x="1024" 
d="M500 1002l-172 276h118l175 -276h-121z" />
    <glyph glyph-name="a" unicode="a" horiz-adv-x="854" 
d="M813 0h-589q-135 0 -135 109v261q0 122 126 122h365v199q0 74 -87 74h-193q-60 0 -71 -41q-1 -4 -1 -97h-116v120q0 127 122 127h326q143 0 143 -132v-633l110 4v-113zM580 109v274h-283q-85 0 -85 -62v-143q0 -69 85 -69h283z" />
    <glyph glyph-name="b" unicode="b" horiz-adv-x="868" 
d="M143 0v1243l-116 -4v113h239v-478h358q148 0 148 -129v-619q0 -126 -126 -126h-503zM266 109h284q57 0 75 13q24 17 24 75v491q0 49 -26 65q-19 12 -73 12h-284v-656z" />
    <glyph glyph-name="c" unicode="c" horiz-adv-x="729" 
d="M688 0h-418q-174 0 -174 160v548q0 59 8 84q26 82 171 82h394v-232h-116v123h-225q-60 0 -81 -15q-28 -19 -28 -80v-453q0 -56 16 -79q20 -29 76 -29h261v123h116v-232z" />
    <glyph glyph-name="d" unicode="d" horiz-adv-x="904" 
d="M493 1352h239v-1243l116 4l2 -113h-603q-49 0 -63 3q-88 15 -88 115v616q0 140 162 140h351v369l-116 -4v113zM609 109v656h-310q-62 0 -73 -26q-7 -16 -7 -53v-494q0 -47 18 -65t67 -18h305z" />
    <glyph glyph-name="e" unicode="e" horiz-adv-x="796" 
d="M708 227v-89q0 -81 -45 -112q-37 -26 -122 -26h-291q-86 0 -120 37.5t-34 124.5v561q0 81 32.5 116t113.5 35h310q156 0 156 -152v-336h-489v-200q0 -51 19 -66q16 -11 70 -11h187q73 0 88 22q9 15 9 96h116zM219 495h366v190q0 53 -18 68q-16 12 -69 12h-199
q-45 0 -62.5 -17t-17.5 -64v-189z" />
    <glyph glyph-name="f" unicode="f" horiz-adv-x="514" 
d="M65 0v113l116 -4v656h-116v109h116v307q0 96 36 133.5t133 37.5h122v-109q-14 0 -39 1t-36 1q-93 0 -93 -86v-285h116v-109h-116v-656l116 4v-113h-355z" />
    <glyph glyph-name="g" unicode="g" horiz-adv-x="894" 
d="M116 -140h123q0 -74 9 -87q12 -19 78 -19h180q60 0 76 12q21 15 21 75v159h-362q-145 0 -145 130v617q0 127 145 127h599v-113l-114 4v-1001q0 -119 -123 -119h-371q-72 0 -98 36q-20 27 -20 90q0 13 1 43t1 46zM603 109v656h-276q-66 0 -82 -9q-26 -15 -26 -73v-463
q0 -76 17.5 -93.5t87.5 -17.5h279z" />
    <glyph glyph-name="h" unicode="h" horiz-adv-x="962" 
d="M68 0v113l116 -4v1134l-116 -4v113h239v-478h342q156 0 156 -127v-638l116 4v-113h-355v113l116 -4v570q0 49 -15 67.5t-65 18.5h-295v-656l116 4v-113h-355z" />
    <glyph glyph-name="i" unicode="i" horiz-adv-x="478" 
d="M68 874h239v-765l116 4v-113h-355v113l116 -4v656l-116 -4v113zM234 1224q36 0 61 -25t25 -61t-25.5 -60.5t-61.5 -24.5q-35 0 -59.5 25t-24.5 60q0 36 24.5 61t60.5 25z" />
    <glyph glyph-name="j" unicode="j" horiz-adv-x="435" 
d="M68 761v113h239v-1050q0 -54 -7 -83q-26 -100 -171 -100h-61v102q75 0 93 14q23 17 23 88v920zM234 1224q36 0 61 -25t25 -61t-25.5 -60.5t-61.5 -24.5q-35 0 -59.5 25t-24.5 60q0 36 24.5 61t60.5 25z" />
    <glyph glyph-name="k" unicode="k" horiz-adv-x="948" 
d="M68 0v113l116 -4v1134l-116 -4v113h239v-907l289 320l-116 -4v113h357v-113l-116 4l-263 -320l332 -336l116 4v-113h-389v113l116 -4l-326 326v-435h-239z" />
    <glyph glyph-name="l" unicode="l" horiz-adv-x="478" 
d="M68 0v113l116 -4v1134l-116 -4v113h239v-1243l116 4v-113h-355z" />
    <glyph glyph-name="m" unicode="m" horiz-adv-x="1445" 
d="M71 874h1070q153 0 153 -137v-628l116 4v-113h-355v113l116 -4v581q0 50 -25 65q-18 10 -73 10h-271v-656l116 4v-113h-355v113l116 -4v656h-369v-656l116 4v-113h-355v113l116 -4v656l-116 -4v113z" />
    <glyph glyph-name="n" unicode="n" horiz-adv-x="961" 
d="M71 874h588q151 0 151 -127v-638l116 4v-113h-355v113l116 -4v568q0 60 -23 76q-17 12 -81 12h-273v-656l116 4v-113h-355v113l116 -4v656l-116 -4v113z" />
    <glyph glyph-name="o" unicode="o" horiz-adv-x="828" 
d="M273 874h292q93 0 125 -23q43 -30 43 -124v-580q0 -147 -168 -147h-295q-174 0 -174 131v606q0 86 48 115q36 22 129 22zM219 691v-483q0 -61 21.5 -80t81.5 -19h199q61 0 77 25q12 18 12 84v473q0 47 -24 62q-18 12 -65 12h-223q-79 0 -79 -74z" />
    <glyph glyph-name="p" unicode="p" horiz-adv-x="881" 
d="M41 -350v117l116 -8v1006l-116 -4v113h595q150 0 150 -131v-587q0 -53 -8 -77q-25 -79 -159 -79h-339v-241l116 8v-117h-355zM271 109h288q33 0 51 4q45 11 45 86v489q0 65 -42 74q-14 3 -38 3h-304v-656z" />
    <glyph glyph-name="q" unicode="q" horiz-adv-x="881" 
d="M841 -350h-355v117l115 -8v241h-338q-90 0 -127 32q-40 35 -40 124v587q0 131 150 131h595v-113l-117 4v-1006l117 8v-117zM610 109v656h-303q-45 0 -61 -14q-19 -15 -19 -63v-489q0 -76 47 -86q17 -4 49 -4h287z" />
    <glyph glyph-name="r" unicode="r" horiz-adv-x="672" 
d="M71 0v113l116 -4v656l-116 -4v113h417q143 0 143 -109v-183h-116v125q0 34 -10 46t-47 12h-148v-656l116 4v-113h-355z" />
    <glyph glyph-name="s" unicode="s" horiz-adv-x="772" 
d="M82 0v232h116v-123h275q53 0 70 9q24 14 24 62v127q0 46 -20 60q-16 11 -61 11h-227q-164 0 -164 145v218q0 133 138 133h440v-232h-116v123h-267q-72 0 -72 -64v-153q0 -61 77 -61h227q97 0 128 -21q40 -28 40 -121v-193q0 -87 -47 -122q-41 -30 -131 -30h-430z" />
    <glyph glyph-name="t" unicode="t" horiz-adv-x="485" 
d="M425 0h-115q-84 0 -118.5 36t-34.5 121v608h-116v109h116v297h123v-297h116v-109h-116v-581q0 -48 16.5 -61.5t128.5 -13.5v-109z" />
    <glyph glyph-name="u" unicode="u" horiz-adv-x="963" 
d="M68 874h239v-672q0 -60 26 -79q20 -14 79 -14h276v656l-116 -4v113h239v-765l116 4l-4 -113h-589q-78 0 -110 23q-40 29 -40 106v636l-116 -4v113z" />
    <glyph glyph-name="v" unicode="v" horiz-adv-x="884" 
d="M390 0l-260 765l-116 -4v113h357v-113l-116 4l128 -378q44 -129 57 -233q24 134 81 309l106 302l-116 -4v113h360v-113l-116 4l-269 -765h-96z" />
    <glyph glyph-name="w" unicode="w" horiz-adv-x="1298" 
d="M359 0l-229 765l-116 -4v113h357v-113l-116 4q45 -151 91 -302q48 -174 61 -308q13 118 41 210l152 509h100l134 -459q40 -138 46 -260q18 115 53 232l112 378l-116 -4v113h355v-113l-116 4l-235 -765h-96l-149 520q-17 59 -36 190q-17 -117 -38 -190l-152 -520h-103z
" />
    <glyph glyph-name="x" unicode="x" horiz-adv-x="898" 
d="M55 0v113l116 -4l215 348l-192 308l-116 -4v113h233v-82l137 -229l131 229v82h240v-113l-116 4l-190 -308l214 -348l116 4v-113h-234v88l-161 262l-153 -262v-88h-240z" />
    <glyph glyph-name="y" unicode="y" horiz-adv-x="869" 
d="M229 -355l147 421l-246 699l-116 -4v113h353v-113l-116 4l98 -278q54 -161 82 -282q23 91 64 208l124 352l-116 -4v113h353v-113l-116 4l-392 -1120h-119z" />
    <glyph glyph-name="z" unicode="z" horiz-adv-x="768" 
d="M68 0v91l489 674h-373v-118h-116v227h631v-109l-488 -656h372v123h116v-232h-631z" />
    <glyph glyph-name="braceleft" unicode="{" horiz-adv-x="538" 
d="M470 1529v-82q-123 0 -160 -42t-37 -167v-321q0 -89 -19 -134q-24 -56 -96 -100q71 -45 95 -101q20 -45 20 -134v-320q0 -126 37 -168t160 -42v-82h-14q-146 0 -210 70q-62 66 -62 214v313q0 90 -17 127q-24 54 -99 71v103q75 17 99 71q17 37 17 127v313q0 154 66 219
t220 65z" />
    <glyph glyph-name="bar" unicode="|" horiz-adv-x="1024" 
d="M450 1365h125v-1706h-125v1706z" />
    <glyph glyph-name="braceright" unicode="}" horiz-adv-x="538" 
d="M68 -164v82q123 0 159.5 42t36.5 168v320q0 89 20 134q24 57 95 101q-71 43 -95 100q-20 45 -20 134v321q0 125 -36.5 167t-159.5 42v82h14q146 0 210 -70q61 -67 61 -214v-313q0 -90 17 -127q24 -54 100 -71v-103q-76 -18 -100 -71q-17 -37 -17 -127v-313
q0 -154 -65.5 -219t-219.5 -65z" />
    <glyph glyph-name="asciitilde" unicode="~" horiz-adv-x="1365" 
d="M265 1202l-71 54q111 218 270 218q76 0 225.5 -77.5t216.5 -77.5q104 0 196 159l71 -54q-112 -219 -270 -219q-75 0 -225 78t-219 78q-102 0 -194 -159z" />
    <glyph glyph-name="exclamdown" unicode="&#xa1;" horiz-adv-x="416" 
d="M266 0h-116v979h116v-979zM210 1379q33 0 56.5 -24.5t23.5 -57.5q0 -34 -24 -58t-58 -24t-58 23.5t-24 57.5q0 36 24 59.5t60 23.5z" />
    <glyph glyph-name="cent" unicode="&#xa2;" horiz-adv-x="729" 
d="M450 137v-137h-96v137q-135 0 -178 16q-80 32 -80 144v547q0 60 8 84q20 61 108 77q31 5 142 5v137h96v-137h219v-232h-116v123h-103v-655h122v123h116v-232h-238zM354 901h-26q-60 0 -81 -15q-28 -19 -28 -80v-452q0 -56 16 -79q20 -29 76 -29h43v655z" />
    <glyph glyph-name="sterling" unicode="&#xa3;" horiz-adv-x="985" 
d="M840 1311v-341h-116v232h-297q-68 0 -87 -28q-14 -21 -14 -73v-397h376v-101h-376v-494h475v321h130v-430h-842v109h107v494h-107v101h107v416q0 112 50 154q45 37 160 37h434z" />
    <glyph glyph-name="currency" unicode="&#xa4;" horiz-adv-x="900" 
d="M695 1085l101 138l88 -64l-119 -164q4 -26 4 -46v-588q0 -20 -5 -45l120 -165l-88 -64l-105 144q-41 -13 -85 -13h-311q-44 0 -85 13l-105 -144l-88 64l120 165q-5 25 -5 49v584q0 20 4 46l-119 164l88 64l101 -138q31 7 88 7h313q57 0 88 -7zM557 983h-213
q-47 0 -65 -12q-24 -15 -24 -62v-473q0 -65 12 -84q17 -25 77 -25h213q60 0 77 25q12 19 12 84v473q0 47 -24 62q-18 12 -65 12z" />
    <glyph glyph-name="yen" unicode="&#xa5;" horiz-adv-x="1053" 
d="M467 504h-294v101h294l-100 181h-208v101h153l-175 319l-123 -4v109h394v-109l-123 4l243 -475l243 475l-122 -4v109h391v-109l-123 4l-170 -319h144v-101h-198l-96 -181h280v-101h-280v-399l123 4v-109h-376v109l123 -4v399z" />
    <glyph glyph-name="brokenbar" unicode="&#xa6;" horiz-adv-x="1024" 
d="M450 1365h125v-676h-125v676zM450 314h125v-655h-125v655z" />
    <glyph glyph-name="section" unicode="&#xa7;" horiz-adv-x="819" 
d="M713 1151h-123q0 83 -7 97q-14 29 -83 29h-182q-59 0 -76 -20q-13 -17 -13 -76v-143q0 -65 85 -65h255q101 0 134.5 -26.5t33.5 -101.5v-336q0 -88 -78 -119q54 -25 54 -114v-222q0 -129 -168 -129h-265q-174 0 -174 115v120h123q0 -80 12 -99q17 -27 91 -27h169
q59 0 76 20q13 17 13 76v143q0 65 -85 65h-248q-175 0 -175 115v358q0 92 73 112q-49 27 -49 112v222q0 82 61 110q40 19 134 19h238q174 0 174 -115v-120zM205 799v-265q0 -55 26 -73q20 -14 78 -14h216q59 0 75 20q14 16 14 76v256q0 65 -89 65h-241q-79 0 -79 -65z" />
    <glyph glyph-name="dieresis" unicode="&#xa8;" horiz-adv-x="765" 
d="M232 1222q34 0 58 -24t24 -58q0 -35 -24 -58.5t-59 -23.5q-33 0 -57 24t-24 57q0 35 23.5 59t58.5 24zM532 1222q34 0 58 -24t24 -58q0 -35 -24 -58.5t-59 -23.5q-33 0 -57 24t-24 57q0 35 23.5 59t58.5 24z" />
    <glyph glyph-name="copyright" unicode="&#xa9;" horiz-adv-x="1055" 
d="M109 205v939q0 182 121 213q34 8 120 8h377q118 0 168 -53.5t50 -172.5v-925q0 -214 -215 -214h-409q-212 0 -212 205zM332 75h387q97 0 125 47q19 32 19 139v897q0 74 -22 101q-25 31 -101 31h-415q-78 0 -106 -29.5t-28 -108.5v-900q0 -101 20 -133q28 -44 121 -44z
M778 273h-343q-146 0 -146 132v557q0 130 153 130h326v-215h-90v137h-230q-40 0 -52 -17q-9 -13 -9 -52v-536q0 -37 18 -49q14 -9 54 -9h229v137h90v-215z" />
    <glyph glyph-name="ordfeminine" unicode="&#xaa;" horiz-adv-x="545" 
d="M517 546h-365q-98 0 -98 71v154q0 79 85 79h219v110q0 37 -47 37h-118q-34 0 -39 -24q1 4 1 -57h-86v77q0 82 83 82h201q95 0 95 -85v-366l69 3v-81zM358 624v148h-167q-47 0 -47 -30v-84q0 -34 47 -34h167z" />
    <glyph glyph-name="guillemotleft" unicode="&#xab;" horiz-adv-x="682" 
d="M559 175l-57 -40l-215 302l215 298l57 -44l-182 -254zM355 175l-58 -40l-215 302l215 298l58 -44l-183 -254z" />
    <glyph glyph-name="logicalnot" unicode="&#xac;" horiz-adv-x="1024" 
d="M833 0v452h-765v110h887v-562h-122z" />
    <glyph glyph-name="registered" unicode="&#xae;" horiz-adv-x="1055" 
d="M109 205v939q0 182 121 213q34 8 120 8h377q118 0 168 -53.5t50 -172.5v-925q0 -214 -215 -214h-409q-212 0 -212 205zM332 75h387q97 0 125 47q19 32 19 139v897q0 74 -22 101q-25 31 -101 31h-415q-78 0 -106 -29.5t-28 -108.5v-900q0 -101 20 -133q28 -44 121 -44z
M253 1011v81h360q137 0 137 -115v-184q0 -73 -65 -93q74 -22 74 -110v-239l56 3v-81h-211v81l57 -3v240q0 45 -18 58q-14 11 -58 11h-166v-309l59 3v-81h-224v81l67 -3v663zM419 738h160q40 0 54 9q19 11 19 48v168q0 51 -76 51h-157v-276z" />
    <glyph glyph-name="overscore" unicode="&#xaf;" horiz-adv-x="1024" 
d="M0 1475v109h1024v-109h-1024z" />
    <glyph glyph-name="degree" unicode="&#xb0;" horiz-adv-x="730" 
d="M369 1324q125 0 212.5 -89.5t87.5 -214.5q0 -127 -88.5 -215.5t-215.5 -88.5q-126 0 -215 88.5t-89 214.5q0 129 89.5 217t218.5 88zM368 1235q-91 0 -153 -62.5t-62 -153.5q0 -89 61.5 -151.5t150.5 -62.5t150.5 63t61.5 152t-60.5 152t-148.5 63z" />
    <glyph glyph-name="plusminus" unicode="&#xb1;" horiz-adv-x="806" 
d="M348 751v266h109v-266h267v-109h-267v-266h-109v266h-266v109h266zM82 137v109h642v-109h-642z" />
    <glyph glyph-name="twosuperior" unicode="&#xb2;" horiz-adv-x="606" 
d="M65 546v174q0 52 18 79q15 24 62 54l300 191v137q0 74 -75 74h-137q-71 0 -71 -75v-102h-97v108q0 147 165 147h155q63 0 107 -32q50 -35 50 -96v-215l-352 -218q-28 -17 -28 -69v-79h290v137h88v-215h-475z" />
    <glyph glyph-name="threesuperior" unicode="&#xb3;" horiz-adv-x="602" 
d="M60 764h97v-69q0 -71 54 -71h157q45 0 60 19q12 15 12 60v154q0 42 -15.5 57.5t-59.5 15.5h-153v49l216 276h-268v-180h-88v258h451v-94l-186 -231h52q148 0 148 -130v-181q0 -151 -151 -151h-156q-82 0 -120 22q-50 30 -50 110v86z" />
    <glyph glyph-name="acute" unicode="&#xb4;" horiz-adv-x="1024" 
d="M524 1002h-121l175 276h118z" />
    <glyph glyph-name="paragraph" unicode="&#xb6;" horiz-adv-x="925" 
d="M509 -75h-266v117l143 -8v649h-179q-147 0 -147 143v378q0 161 176 161h653v-117l-116 8v-1222l116 8v-117h-239v1331h-141v-1331z" />
    <glyph glyph-name="middot" unicode="&#xb7;" horiz-adv-x="328" 
d="M164 546q34 0 58 -23.5t24 -57.5q0 -36 -24 -59.5t-60 -23.5q-33 0 -56.5 24.5t-23.5 57.5q0 34 24 58t58 24z" />
    <glyph glyph-name="cedilla" unicode="&#xb8;" horiz-adv-x="1024" 
d="M563 -87q74 0 82 -3q27 -10 27 -65v-106q0 -59 -32 -66q-12 -2 -36 -2h-171v75h135v100h-78v154h73v-87z" />
    <glyph glyph-name="onesuperior" unicode="&#xb9;" horiz-adv-x="423" 
d="M118 546v81l76 -3v582l-146 -117v95l181 149h62v-709l76 3v-81h-249z" />
    <glyph glyph-name="ordmasculine" unicode="&#xba;" horiz-adv-x="525" 
d="M175 1075h181q59 0 81 -15q30 -20 30 -78v-343q0 -93 -111 -93h-183q-115 0 -115 84v358q0 54 33 73q25 14 84 14zM148 960v-285q0 -51 53 -51h132q29 0 38 12q6 10 6 41v283q0 37 -48 37h-139q-42 0 -42 -37z" />
    <glyph glyph-name="guillemotright" unicode="&#xbb;" horiz-adv-x="682" 
d="M123 175l183 262l-183 254l57 44l216 -298l-216 -302zM328 175l183 262l-183 254l57 44l215 -298l-215 -302z" />
    <glyph glyph-name="onequarter" unicode="&#xbc;" horiz-adv-x="1258" 
d="M118 546v81l76 -3v582l-146 -117v95l181 149h62v-709l76 3v-81h-249zM1076 1338l-829 -1338h-80l829 1338h80zM1041 0v201h-319v75l305 511h111v-508h76v-78h-76v-201h-97zM1041 279q0 329 2 380q-18 -39 -43 -79l-184 -301h225z" />
    <glyph glyph-name="onehalf" unicode="&#xbd;" horiz-adv-x="1316" 
d="M118 546v81l76 -3v582l-146 -117v95l181 149h62v-709l76 3v-81h-249zM1035 1338l-829 -1338h-80l829 1338h80zM774 0v174q0 51 19 80q15 23 62 53l300 190v138q0 74 -75 74h-138q-71 0 -71 -75v-103h-97v109q0 147 165 147h156q63 0 107 -32q50 -35 50 -96v-215
l-352 -218q-29 -18 -29 -69v-79h290v137h88v-215h-475z" />
    <glyph glyph-name="threequarters" unicode="&#xbe;" horiz-adv-x="1386" 
d="M60 764h97v-69q0 -71 54 -71h157q45 0 60 19q12 15 12 60v154q0 42 -15.5 57.5t-59.5 15.5h-153v49l216 276h-268v-180h-88v258h451v-94l-186 -231h52q148 0 148 -130v-181q0 -151 -151 -151h-156q-82 0 -120 22q-50 30 -50 110v86zM1200 1338l-829 -1338h-81l829 1338
h81zM1169 0v201h-319v75l305 511h111v-508h76v-78h-76v-201h-97zM1169 279q0 329 2 380q-22 -47 -42 -79l-185 -301h225z" />
    <glyph glyph-name="questiondown" unicode="&#xbf;" horiz-adv-x="805" 
d="M579 976v-347h-292q-75 0 -75 -90v-336q0 -94 85 -94h212q59 0 79 21t20 81v124h116v-191q0 -144 -158 -144h-317q-167 0 -167 167v400q0 171 173 171h208v238h116zM520 1379q33 0 56.5 -24.5t23.5 -57.5q0 -34 -24 -58t-58 -24t-58 23.5t-24 57.5q0 36 24 59.5t60 23.5z
" />
    <glyph glyph-name="Agrave" unicode="&#xc0;" horiz-adv-x="1168" 
d="M14 0v115l131 -5l331 1255h231l317 -1255l131 5v-115h-403v115l131 -5l-94 365h-406l-96 -365l131 5v-115h-404zM410 585h356l-177 675zM555 1434l-172 275h118l175 -275h-121z" />
    <glyph glyph-name="Aacute" unicode="&#xc1;" horiz-adv-x="1168" 
d="M14 0v115l131 -5l331 1255h231l317 -1255l131 5v-115h-403v115l131 -5l-94 365h-406l-96 -365l131 5v-115h-404zM410 585h356l-177 675zM614 1434h-121l175 275h118z" />
    <glyph glyph-name="Acircumflex" unicode="&#xc2;" horiz-adv-x="1168" 
d="M14 0v115l131 -5l331 1255h231l317 -1255l131 5v-115h-403v115l131 -5l-94 365h-406l-96 -365l131 5v-115h-404zM410 585h356l-177 675zM354 1430l166 277h127l165 -277h-111l-115 190l-114 -190h-118z" />
    <glyph glyph-name="Atilde" unicode="&#xc3;" horiz-adv-x="1168" 
d="M14 0v115l131 -5l331 1255h231l317 -1255l131 5v-115h-403v115l131 -5l-94 365h-406l-96 -365l131 5v-115h-404zM410 585h356l-177 675zM362 1465v43q0 137 101 137q37 0 118.5 -33.5t107.5 -33.5q21 0 21 66h96q1 -28 1 -39q0 -137 -96 -137q-38 0 -123 34.5t-109 34.5
q-21 0 -21 -72h-96z" />
    <glyph glyph-name="Adieresis" unicode="&#xc4;" horiz-adv-x="1168" 
d="M14 0v115l131 -5l331 1255h231l317 -1255l131 5v-115h-403v115l131 -5l-94 365h-406l-96 -365l131 5v-115h-404zM410 585h356l-177 675zM434 1639q35 0 58.5 -24t23.5 -59q0 -34 -24.5 -57.5t-58.5 -23.5q-33 0 -57 24t-24 57q0 35 23.5 59t58.5 24zM735 1639
q35 0 58.5 -24t23.5 -59q0 -34 -24.5 -57.5t-58.5 -23.5q-33 0 -57 24t-24 57q0 35 23.5 59t58.5 24z" />
    <glyph glyph-name="Aring" unicode="&#xc5;" horiz-adv-x="1168" 
d="M14 0v115l131 -5l331 1255h231l317 -1255l131 5v-115h-403v115l131 -5l-94 365h-406l-96 -365l131 5v-115h-404zM410 585h356l-177 675zM585 1727q66 0 111.5 -46t45.5 -112t-46.5 -111t-112.5 -45q-64 0 -109.5 46t-45.5 110q0 66 45.5 112t111.5 46zM585 1645
q-32 0 -53.5 -22t-21.5 -54q0 -30 22 -52t52 -22q32 0 54 21t22 53q0 76 -75 76z" />
    <glyph glyph-name="AE" unicode="&#xc6;" horiz-adv-x="1606" 
d="M44 0v113l130 -4l513 1256h831v-341h-123v232h-463v-503h428v-109h-428v-535h463v232h123v-341h-853v113l130 -4v364h-328l-149 -364l130 4v-113h-404zM509 582h286v683z" />
    <glyph glyph-name="Ccedilla" unicode="&#xc7;" horiz-adv-x="965" 
d="M876 0h-359v-72h100v-224h-247v63h128v85h-73v148q-177 0 -225 21q-91 39 -91 190v945q0 116 62 165q55 44 174 44h516v-341h-123v232h-383q-70 0 -92 -34q-17 -25 -17 -95v-908q0 -69 33 -92q25 -18 94 -18h380v232h123v-341z" />
    <glyph glyph-name="Egrave" unicode="&#xc8;" horiz-adv-x="1044" 
d="M89 0v114l131 -4v1145l-131 -4v114h868v-338h-124v228h-475v-503h433v-110h-433v-532h475v228h124v-338h-868zM521 1434l-172 275h118l175 -275h-121z" />
    <glyph glyph-name="Eacute" unicode="&#xc9;" horiz-adv-x="1044" 
d="M89 0v114l131 -4v1145l-131 -4v114h868v-338h-124v228h-475v-503h433v-110h-433v-532h475v228h124v-338h-868zM579 1434h-121l175 275h118z" />
    <glyph glyph-name="Ecircumflex" unicode="&#xca;" horiz-adv-x="1044" 
d="M89 0v114l131 -4v1145l-131 -4v114h868v-338h-124v228h-475v-503h433v-110h-433v-532h475v228h124v-338h-868zM324 1430l166 277h127l165 -277h-111l-115 190l-114 -190h-118z" />
    <glyph glyph-name="Edieresis" unicode="&#xcb;" horiz-adv-x="1044" 
d="M89 0v114l131 -4v1145l-131 -4v114h868v-338h-124v228h-475v-503h433v-110h-433v-532h475v228h124v-338h-868zM400 1639q35 0 58.5 -24t23.5 -59q0 -34 -24.5 -57.5t-58.5 -23.5q-33 0 -57 24t-24 57q0 35 23.5 59t58.5 24zM700 1639q35 0 58.5 -24t23.5 -59
q0 -34 -24.5 -57.5t-58.5 -23.5q-33 0 -57 24t-24 57q0 35 23.5 59t58.5 24z" />
    <glyph glyph-name="Igrave" unicode="&#xcc;" horiz-adv-x="574" 
d="M88 0v113l130 -4v1147l-130 -4v113h396v-113l-129 4v-1147l129 4v-113h-396zM257 1434l-172 275h118l175 -275h-121z" />
    <glyph glyph-name="Iacute" unicode="&#xcd;" horiz-adv-x="573" 
d="M89 0v113l130 -4v1147l-130 -4v113h396v-113l-129 4v-1147l129 4v-113h-396zM316 1434h-121l175 275h118z" />
    <glyph glyph-name="Icircumflex" unicode="&#xce;" horiz-adv-x="573" 
d="M88 0v113l130 -4v1147l-130 -4v113h396v-113l-129 4v-1147l129 4v-113h-396zM50 1434l171 285h131l171 -285h-115l-119 196l-117 -196h-122z" />
    <glyph glyph-name="Idieresis" unicode="&#xcf;" horiz-adv-x="573" 
d="M89 0v113l130 -4v1147l-130 -4v113h396v-113l-129 4v-1147l129 4v-113h-396zM157 1639q35 0 58.5 -24t23.5 -59q0 -34 -24.5 -57.5t-58.5 -23.5q-33 0 -57 24t-24 57q0 35 23.5 59t58.5 24zM416 1639q35 0 58.5 -24t23.5 -59q0 -34 -24.5 -57.5t-58.5 -23.5q-33 0 -57 24
t-24 57q0 35 23.5 59t58.5 24z" />
    <glyph glyph-name="Eth" unicode="&#xd0;" horiz-adv-x="1094" 
d="M220 650h-131v93h131v512l-131 -4v114h625q154 0 212.5 -55t58.5 -208v-838q0 -89 -13 -134q-40 -130 -264 -130h-619v114l131 -4v540zM358 650v-540h362q71 0 99 32t28 104v867q0 48 -4 67q-16 75 -123 75h-362v-512h243v-93h-243z" />
    <glyph glyph-name="Ntilde" unicode="&#xd1;" horiz-adv-x="1256" 
d="M89 0v113l130 -4v1147l-130 -4l3 113h280l439 -911q80 -166 113 -270q-23 167 -23 301v771l-129 -4v113h396v-113l-130 4v-1256h-153l-454 942q-29 59 -95 239q20 -216 20 -261v-811l128 4v-113h-395zM406 1465v43q0 137 101 137q37 0 118.5 -33.5t107.5 -33.5
q21 0 21 66h96q1 -28 1 -39q0 -137 -96 -137q-38 0 -123 34.5t-109 34.5q-21 0 -21 -72h-96z" />
    <glyph glyph-name="Ograve" unicode="&#xd2;" horiz-adv-x="996" 
d="M109 204v940q0 182 121 213q34 8 120 8h318q118 0 168.5 -53t50.5 -172v-926q0 -214 -215 -214h-351q-212 0 -212 204zM387 109h220q96 0 124 47q19 33 19 139v829q0 74 -22 101q-25 31 -101 31h-247q-78 0 -106 -29.5t-28 -108.5v-832q0 -101 20 -133q28 -44 121 -44z
M468 1434l-172 275h118l175 -275h-121z" />
    <glyph glyph-name="Oacute" unicode="&#xd3;" horiz-adv-x="996" 
d="M109 204v940q0 182 121 213q34 8 120 8h318q118 0 168.5 -53t50.5 -172v-926q0 -214 -215 -214h-351q-212 0 -212 204zM387 109h220q96 0 124 47q19 33 19 139v829q0 74 -22 101q-25 31 -101 31h-247q-78 0 -106 -29.5t-28 -108.5v-832q0 -101 20 -133q28 -44 121 -44z
M527 1434h-121l175 275h118z" />
    <glyph glyph-name="Ocircumflex" unicode="&#xd4;" horiz-adv-x="996" 
d="M109 204v940q0 182 121 213q34 8 120 8h318q118 0 168.5 -53t50.5 -172v-926q0 -214 -215 -214h-351q-212 0 -212 204zM387 109h220q96 0 124 47q19 33 19 139v829q0 74 -22 101q-25 31 -101 31h-247q-78 0 -106 -29.5t-28 -108.5v-832q0 -101 20 -133q28 -44 121 -44z
M269 1430l166 277h127l165 -277h-111l-115 190l-114 -190h-118z" />
    <glyph glyph-name="Otilde" unicode="&#xd5;" horiz-adv-x="996" 
d="M109 204v940q0 182 121 213q34 8 120 8h318q118 0 168.5 -53t50.5 -172v-926q0 -214 -215 -214h-351q-212 0 -212 204zM387 109h220q96 0 124 47q19 33 19 139v829q0 74 -22 101q-25 31 -101 31h-247q-78 0 -106 -29.5t-28 -108.5v-832q0 -101 20 -133q28 -44 121 -44z
M276 1465v43q0 137 101 137q37 0 118.5 -33.5t107.5 -33.5q21 0 21 66h96q1 -28 1 -39q0 -137 -96 -137q-38 0 -123 34.5t-109 34.5q-21 0 -21 -72h-96z" />
    <glyph glyph-name="Odieresis" unicode="&#xd6;" horiz-adv-x="996" 
d="M109 204v940q0 182 121 213q34 8 120 8h318q118 0 168.5 -53t50.5 -172v-926q0 -214 -215 -214h-351q-212 0 -212 204zM387 109h220q96 0 124 47q19 33 19 139v829q0 74 -22 101q-25 31 -101 31h-247q-78 0 -106 -29.5t-28 -108.5v-832q0 -101 20 -133q28 -44 121 -44z
M348 1639q35 0 58.5 -24t23.5 -59q0 -34 -24.5 -57.5t-58.5 -23.5q-33 0 -57 24t-24 57q0 35 23.5 59t58.5 24zM648 1639q35 0 58.5 -24t23.5 -59q0 -34 -24.5 -57.5t-58.5 -23.5q-33 0 -57 24t-24 57q0 35 23.5 59t58.5 24z" />
    <glyph glyph-name="multiply" unicode="&#xd7;" horiz-adv-x="806" 
d="M325 655l-212 213l77 77l213 -212l212 212l77 -77l-212 -213l212 -212l-77 -77l-212 212l-213 -212l-77 77z" />
    <glyph glyph-name="Oslash" unicode="&#xd8;" horiz-adv-x="1026" 
d="M158 77l-71 -104l-80 58l117 173v940q0 183 121 213q34 8 120 8h318q134 0 183 -73l70 100l83 -58l-118 -170q1 -18 1 -24v-926q0 -214 -215 -214h-351q-121 0 -178 77zM261 220q5 -111 141 -111h220q96 0 124 47q19 33 19 139v675zM261 397l504 753q-3 61 -31.5 83.5
t-91.5 22.5h-247q-78 0 -106 -29.5t-28 -108.5v-721z" />
    <glyph glyph-name="Ugrave" unicode="&#xd9;" horiz-adv-x="1158" 
d="M55 1365h396v-113l-129 4v-1010q0 -82 27.5 -109.5t109.5 -27.5h258q69 0 94.5 28t25.5 98v1021l-130 -4v113h396v-113l-129 4v-1034q0 -118 -50.5 -170t-167.5 -52h-366q-205 0 -205 232v1024l-130 -4v113zM550 1434l-172 275h118l175 -275h-121z" />
    <glyph glyph-name="Uacute" unicode="&#xda;" horiz-adv-x="1158" 
d="M55 1365h396v-113l-129 4v-1010q0 -82 27.5 -109.5t109.5 -27.5h258q69 0 94.5 28t25.5 98v1021l-130 -4v113h396v-113l-129 4v-1034q0 -118 -50.5 -170t-167.5 -52h-366q-205 0 -205 232v1024l-130 -4v113zM608 1434h-121l175 275h118z" />
    <glyph glyph-name="Ucircumflex" unicode="&#xdb;" horiz-adv-x="1158" 
d="M55 1365h396v-113l-129 4v-1010q0 -82 27.5 -109.5t109.5 -27.5h258q69 0 94.5 28t25.5 98v1021l-130 -4v113h396v-113l-129 4v-1034q0 -118 -50.5 -170t-167.5 -52h-366q-205 0 -205 232v1024l-130 -4v113zM343 1434l171 285h131l171 -285h-115l-119 196l-117 -196h-122
z" />
    <glyph glyph-name="Udieresis" unicode="&#xdc;" horiz-adv-x="1158" 
d="M55 1365h396v-113l-129 4v-1010q0 -82 27.5 -109.5t109.5 -27.5h258q69 0 94.5 28t25.5 98v1021l-130 -4v113h396v-113l-129 4v-1034q0 -118 -50.5 -170t-167.5 -52h-366q-205 0 -205 232v1024l-130 -4v113zM429 1639q35 0 58.5 -24t23.5 -59q0 -34 -24.5 -57.5
t-58.5 -23.5q-33 0 -57 24t-24 57q0 35 23.5 59t58.5 24zM730 1639q35 0 58.5 -24t23.5 -59q0 -34 -24.5 -57.5t-58.5 -23.5q-33 0 -57 24t-24 57q0 35 23.5 59t58.5 24z" />
    <glyph glyph-name="Yacute" unicode="&#xdd;" horiz-adv-x="1107" 
d="M361 0v113l130 -4v521l-347 626l-130 -4v113h415v-113l-130 4l257 -494l255 494l-129 -4v113h412v-113l-130 4l-336 -626v-521l129 4v-113h-396zM583 1434h-121l175 275h118z" />
    <glyph glyph-name="Thorn" unicode="&#xde;" horiz-adv-x="995" 
d="M90 0v113l129 -4v1147l-130 -4v113h267v-166h337q87 0 114 -5q133 -28 133 -182v-333q0 -204 -226 -204h-358v-366l127 4v-113h-393zM356 584h329q77 0 100 35q18 25 18 102v252q0 71 -32 96q-27 21 -98 21h-317v-506z" />
    <glyph glyph-name="germandbls" unicode="&#xdf;" horiz-adv-x="844" 
d="M48 0v113l117 -4v1027q0 216 190 216h176q62 0 86 -5q50 -10 82.5 -48t32.5 -88v-377q0 -111 -91 -137q107 -23 107 -128v-397q0 -172 -170 -172h-161v109h99q66 0 89 26q20 24 20 90v298q0 70 -32 93q-26 17 -101 17h-75v109q110 0 133 7q59 20 59 104v314q0 76 -97 76
h-119q-105 0 -105 -100v-1143h-240z" />
    <glyph glyph-name="agrave" unicode="&#xe0;" horiz-adv-x="854" 
d="M813 0h-589q-135 0 -135 109v261q0 122 126 122h365v199q0 74 -87 74h-193q-60 0 -71 -41q-1 -4 -1 -97h-116v120q0 127 122 127h326q143 0 143 -132v-633l110 4v-113zM580 109v274h-283q-85 0 -85 -62v-143q0 -69 85 -69h283zM415 1002l-172 276h118l175 -276h-121z" />
    <glyph glyph-name="aacute" unicode="&#xe1;" horiz-adv-x="854" 
d="M813 0h-589q-135 0 -135 109v261q0 122 126 122h365v199q0 74 -87 74h-193q-60 0 -71 -41q-1 -4 -1 -97h-116v120q0 127 122 127h326q143 0 143 -132v-633l110 4v-113zM580 109v274h-283q-85 0 -85 -62v-143q0 -69 85 -69h283zM439 1002h-121l175 276h118z" />
    <glyph glyph-name="acircumflex" unicode="&#xe2;" horiz-adv-x="854" 
d="M813 0h-589q-135 0 -135 109v261q0 122 126 122h365v199q0 74 -87 74h-193q-60 0 -71 -41q-1 -4 -1 -97h-116v120q0 127 122 127h326q143 0 143 -132v-633l110 4v-113zM580 109v274h-283q-85 0 -85 -62v-143q0 -69 85 -69h283zM198 1002l166 277h127l165 -277h-111
l-115 190l-114 -190h-118z" />
    <glyph glyph-name="atilde" unicode="&#xe3;" horiz-adv-x="854" 
d="M813 0h-589q-135 0 -135 109v261q0 122 126 122h365v199q0 74 -87 74h-193q-60 0 -71 -41q-1 -4 -1 -97h-116v120q0 127 122 127h326q143 0 143 -132v-633l110 4v-113zM580 109v274h-283q-85 0 -85 -62v-143q0 -69 85 -69h283zM205 1042v43q0 137 101 137
q37 0 118.5 -33.5t107.5 -33.5q21 0 21 66h96q1 -28 1 -39q0 -137 -96 -137q-38 0 -123 34.5t-109 34.5q-21 0 -21 -72h-96z" />
    <glyph glyph-name="adieresis" unicode="&#xe4;" horiz-adv-x="854" 
d="M813 0h-589q-135 0 -135 109v261q0 122 126 122h365v199q0 74 -87 74h-193q-60 0 -71 -41q-1 -4 -1 -97h-116v120q0 127 122 127h326q143 0 143 -132v-633l110 4v-113zM580 109v274h-283q-85 0 -85 -62v-143q0 -69 85 -69h283zM277 1222q34 0 58 -24t24 -58
q0 -35 -24 -58.5t-59 -23.5q-33 0 -57 24t-24 57q0 35 23.5 59t58.5 24zM577 1222q34 0 58 -24t24 -58q0 -35 -24 -58.5t-59 -23.5q-33 0 -57 24t-24 57q0 35 23.5 59t58.5 24z" />
    <glyph glyph-name="aring" unicode="&#xe5;" horiz-adv-x="854" 
d="M813 0h-589q-135 0 -135 109v261q0 122 126 122h365v199q0 74 -87 74h-193q-60 0 -71 -41q-1 -4 -1 -97h-116v120q0 127 122 127h326q143 0 143 -132v-633l110 4v-113zM580 109v274h-283q-85 0 -85 -62v-143q0 -69 85 -69h283zM427 1297q66 0 111.5 -46t45.5 -112
t-46.5 -111t-112.5 -45q-64 0 -109.5 46t-45.5 110q0 66 45.5 112t111.5 46zM427 1215q-32 0 -53.5 -22t-21.5 -54q0 -30 22 -52t52 -22q76 0 76 75q0 32 -21.5 53.5t-53.5 21.5z" />
    <glyph glyph-name="ae" unicode="&#xe6;" horiz-adv-x="1287" 
d="M227 627h-116v109q0 138 153 138h292q55 0 87 -34q32 32 88 32h315q44 0 65 -4q87 -17 87 -124v-365h-491v-175q0 -65 25 -82q19 -14 72 -14h184q72 0 86 25q8 14 8 98h116v-83q0 -149 -128 -149h-331q-55 0 -97 37q-39 -37 -92 -37h-325q-136 0 -136 147v206
q0 136 127 136h368v185q0 56 -24 75q-20 15 -75 15h-168q-69 0 -84 -35q-6 -15 -6 -101zM584 379h-275q-53 0 -73 -15q-24 -18 -24 -71v-100q0 -60 27 -75q18 -10 58 -10h196q60 0 77 24q14 19 14 65v182zM707 488h368v200q0 48 -21 63q-17 12 -64 12h-195q-76 0 -85 -51
q-3 -16 -3 -40v-184z" />
    <glyph glyph-name="ccedilla" unicode="&#xe7;" horiz-adv-x="729" 
d="M688 0h-264v-98h101v-208h-231v60h119v90h-62v156q-133 0 -176 17q-79 31 -79 143v548q0 59 8 84q26 82 171 82h394v-232h-116v123h-226q-60 0 -81 -15q-27 -20 -27 -80v-453q0 -108 91 -108h262v123h116v-232z" />
    <glyph glyph-name="egrave" unicode="&#xe8;" horiz-adv-x="796" 
d="M708 227v-89q0 -81 -45 -112q-37 -26 -122 -26h-291q-86 0 -120 37.5t-34 124.5v561q0 81 32.5 116t113.5 35h310q156 0 156 -152v-336h-489v-200q0 -51 19 -66q16 -11 70 -11h187q73 0 88 22q9 15 9 96h116zM219 495h366v190q0 53 -18 68q-16 12 -69 12h-199
q-45 0 -62.5 -17t-17.5 -64v-189zM386 1002l-172 276h118l175 -276h-121z" />
    <glyph glyph-name="eacute" unicode="&#xe9;" horiz-adv-x="796" 
d="M708 227v-89q0 -81 -45 -112q-37 -26 -122 -26h-291q-86 0 -120 37.5t-34 124.5v561q0 81 32.5 116t113.5 35h310q156 0 156 -152v-336h-489v-200q0 -51 19 -66q16 -11 70 -11h187q73 0 88 22q9 15 9 96h116zM219 495h366v190q0 53 -18 68q-16 12 -69 12h-199
q-45 0 -62.5 -17t-17.5 -64v-189zM410 1002h-121l175 276h118z" />
    <glyph glyph-name="ecircumflex" unicode="&#xea;" horiz-adv-x="796" 
d="M708 227v-89q0 -81 -45 -112q-37 -26 -122 -26h-291q-86 0 -120 37.5t-34 124.5v561q0 81 32.5 116t113.5 35h310q156 0 156 -152v-336h-489v-200q0 -51 19 -66q16 -11 70 -11h187q73 0 88 22q9 15 9 96h116zM219 495h366v190q0 53 -18 68q-16 12 -69 12h-199
q-45 0 -62.5 -17t-17.5 -64v-189zM169 1002l166 277h127l165 -277h-111l-115 190l-114 -190h-118z" />
    <glyph glyph-name="edieresis" unicode="&#xeb;" horiz-adv-x="796" 
d="M708 227v-89q0 -81 -45 -112q-37 -26 -122 -26h-291q-86 0 -120 37.5t-34 124.5v561q0 81 32.5 116t113.5 35h310q156 0 156 -152v-336h-489v-200q0 -51 19 -66q16 -11 70 -11h187q73 0 88 22q9 15 9 96h116zM219 495h366v190q0 53 -18 68q-16 12 -69 12h-199
q-45 0 -62.5 -17t-17.5 -64v-189zM248 1222q34 0 58 -24t24 -58q0 -35 -24 -58.5t-59 -23.5q-33 0 -57 24t-24 57q0 35 23.5 59t58.5 24zM548 1222q34 0 58 -24t24 -58q0 -35 -24 -58.5t-59 -23.5q-33 0 -57 24t-24 57q0 35 23.5 59t58.5 24z" />
    <glyph glyph-name="igrave" unicode="&#xec;" horiz-adv-x="478" 
d="M69 874h239v-765l116 4v-113h-355v113l116 -4v656l-116 -4v113zM227 1002l-172 276h118l175 -276h-121z" />
    <glyph glyph-name="iacute" unicode="&#xed;" horiz-adv-x="478" 
d="M68 874h239v-765l116 4v-113h-355v113l116 -4v656l-116 -4v113zM251 1002h-121l175 276h118z" />
    <glyph glyph-name="icircumflex" unicode="&#xee;" horiz-adv-x="478" 
d="M68 874h239v-765l116 4v-113h-355v113l116 -4v656l-116 -4v113zM10 1002l166 277h127l165 -277h-111l-115 190l-114 -190h-118z" />
    <glyph glyph-name="idieresis" unicode="&#xef;" horiz-adv-x="478" 
d="M68 874h239v-765l116 4v-113h-355v113l116 -4v656l-116 -4v113zM123 1222q34 0 58 -24t24 -58q0 -35 -24 -58.5t-59 -23.5q-33 0 -57 24t-24 57q0 35 23.5 59t58.5 24zM355 1222q34 0 58 -24t24 -58q0 -35 -24 -58.5t-59 -23.5q-33 0 -57 24t-24 57q0 35 23.5 59t58.5 24
z" />
    <glyph glyph-name="eth" unicode="&#xf0;" horiz-adv-x="828" 
d="M595 869q-20 158 -165 291l-138 -148l-68 63l136 145q-42 31 -118 71l65 89q75 -36 130 -76l93 100l68 -63l-89 -96q224 -211 224 -502v-596q0 -147 -168 -147h-295q-174 0 -174 131v606q0 86 48 115q35 22 129 22h278q25 0 44 -5zM219 691v-483q0 -61 21.5 -80t81.5 -19
h199q61 0 77 25q12 18 12 84v473q0 47 -24 62q-18 12 -65 12h-223q-79 0 -79 -74z" />
    <glyph glyph-name="ntilde" unicode="&#xf1;" horiz-adv-x="961" 
d="M71 874h588q151 0 151 -127v-638l116 4v-113h-355v113l116 -4v568q0 60 -23 76q-17 12 -81 12h-273v-656l116 4v-113h-355v113l116 -4v656l-116 -4v113zM259 1042v43q0 137 101 137q37 0 118.5 -33.5t107.5 -33.5q21 0 21 66h96q1 -28 1 -39q0 -137 -96 -137
q-38 0 -123 34.5t-109 34.5q-21 0 -21 -72h-96z" />
    <glyph glyph-name="ograve" unicode="&#xf2;" horiz-adv-x="828" 
d="M273 874h292q93 0 125 -23q43 -30 43 -124v-580q0 -147 -168 -147h-295q-174 0 -174 131v606q0 86 48 115q36 22 129 22zM219 691v-483q0 -61 21.5 -80t81.5 -19h199q61 0 77 25q12 18 12 84v473q0 47 -24 62q-18 12 -65 12h-223q-79 0 -79 -74zM402 1002l-172 276h118
l175 -276h-121z" />
    <glyph glyph-name="oacute" unicode="&#xf3;" horiz-adv-x="828" 
d="M273 874h292q93 0 125 -23q43 -30 43 -124v-580q0 -147 -168 -147h-295q-174 0 -174 131v606q0 86 48 115q36 22 129 22zM219 691v-483q0 -61 21.5 -80t81.5 -19h199q61 0 77 25q12 18 12 84v473q0 47 -24 62q-18 12 -65 12h-223q-79 0 -79 -74zM427 1002h-121l175 276
h118z" />
    <glyph glyph-name="ocircumflex" unicode="&#xf4;" horiz-adv-x="828" 
d="M273 874h292q93 0 125 -23q43 -30 43 -124v-580q0 -147 -168 -147h-295q-174 0 -174 131v606q0 86 48 115q36 22 129 22zM219 691v-483q0 -61 21.5 -80t81.5 -19h199q61 0 77 25q12 18 12 84v473q0 47 -24 62q-18 12 -65 12h-223q-79 0 -79 -74zM185 1002l166 277h127
l165 -277h-111l-115 190l-114 -190h-118z" />
    <glyph glyph-name="otilde" unicode="&#xf5;" horiz-adv-x="828" 
d="M273 874h292q93 0 125 -23q43 -30 43 -124v-580q0 -147 -168 -147h-295q-174 0 -174 131v606q0 86 48 115q36 22 129 22zM219 691v-483q0 -61 21.5 -80t81.5 -19h199q61 0 77 25q12 18 12 84v473q0 47 -24 62q-18 12 -65 12h-223q-79 0 -79 -74zM193 1042v43
q0 137 101 137q37 0 118.5 -33.5t107.5 -33.5q21 0 21 66h96q1 -28 1 -39q0 -137 -96 -137q-38 0 -123 34.5t-109 34.5q-21 0 -21 -72h-96z" />
    <glyph glyph-name="odieresis" unicode="&#xf6;" horiz-adv-x="828" 
d="M273 874h292q93 0 125 -23q43 -30 43 -124v-580q0 -147 -168 -147h-295q-174 0 -174 131v606q0 86 48 115q36 22 129 22zM219 691v-483q0 -61 21.5 -80t81.5 -19h199q61 0 77 25q12 18 12 84v473q0 47 -24 62q-18 12 -65 12h-223q-79 0 -79 -74zM265 1222q34 0 58 -24
t24 -58q0 -35 -24 -58.5t-59 -23.5q-33 0 -57 24t-24 57q0 35 23.5 59t58.5 24zM565 1222q34 0 58 -24t24 -58q0 -35 -24 -58.5t-59 -23.5q-33 0 -57 24t-24 57q0 35 23.5 59t58.5 24z" />
    <glyph glyph-name="divide" unicode="&#xf7;" horiz-adv-x="806" 
d="M82 601v109h642v-109h-642zM403 983q34 0 58 -23.5t24 -57.5q0 -36 -24 -59.5t-60 -23.5q-33 0 -56.5 24.5t-23.5 57.5q0 34 24 58t58 24zM403 492q34 0 58 -23.5t24 -57.5q0 -36 -24 -59.5t-60 -23.5q-33 0 -56.5 24.5t-23.5 57.5q0 34 24 58t58 24z" />
    <glyph glyph-name="oslash" unicode="&#xf8;" horiz-adv-x="828" 
d="M134 37l-59 -66l-75 68l96 109v589q0 87 48 116q36 21 130 21h291q102 0 133 -29l52 58l79 -68l-96 -109v-579q0 -147 -168 -147h-295q-94 0 -136 37zM233 141q13 -32 89 -32h199q61 0 77 25q12 18 12 84v371zM219 286l381 453q-20 26 -74 26h-233q-74 0 -74 -74v-405z
" />
    <glyph glyph-name="ugrave" unicode="&#xf9;" horiz-adv-x="963" 
d="M68 874h239v-672q0 -60 26 -79q20 -14 79 -14h276v656l-116 -4v113h239v-765l116 4l-4 -113h-589q-78 0 -110 23q-40 29 -40 106v636l-116 -4v113zM469 1002l-172 276h118l175 -276h-121z" />
    <glyph glyph-name="uacute" unicode="&#xfa;" horiz-adv-x="963" 
d="M68 874h239v-672q0 -60 26 -79q20 -14 79 -14h276v656l-116 -4v113h239v-765l116 4l-4 -113h-589q-78 0 -110 23q-40 29 -40 106v636l-116 -4v113zM493 1002h-121l175 276h118z" />
    <glyph glyph-name="ucircumflex" unicode="&#xfb;" horiz-adv-x="963" 
d="M68 874h239v-672q0 -60 26 -79q20 -14 79 -14h276v656l-116 -4v113h239v-765l116 4l-4 -113h-589q-78 0 -110 23q-40 29 -40 106v636l-116 -4v113zM252 1002l166 277h127l165 -277h-111l-115 190l-114 -190h-118z" />
    <glyph glyph-name="udieresis" unicode="&#xfc;" horiz-adv-x="963" 
d="M68 874h239v-672q0 -60 26 -79q20 -14 79 -14h276v656l-116 -4v113h239v-765l116 4l-4 -113h-589q-78 0 -110 23q-40 29 -40 106v636l-116 -4v113zM331 1222q34 0 58 -24t24 -58q0 -35 -24 -58.5t-59 -23.5q-33 0 -57 24t-24 57q0 35 23.5 59t58.5 24zM631 1222
q34 0 58 -24t24 -58q0 -35 -24 -58.5t-59 -23.5q-33 0 -57 24t-24 57q0 35 23.5 59t58.5 24z" />
    <glyph glyph-name="yacute" unicode="&#xfd;" horiz-adv-x="869" 
d="M229 -355l147 421l-246 699l-116 -4v113h353v-113l-116 4l98 -278q54 -161 82 -282q23 91 64 208l124 352l-116 -4v113h353v-113l-116 4l-392 -1120h-119zM447 1002h-121l175 276h118z" />
    <glyph glyph-name="thorn" unicode="&#xfe;" horiz-adv-x="881" 
d="M41 1352h239v-478h356q150 0 150 -131v-587q0 -53 -8 -77q-25 -79 -159 -79h-339v-241l116 8v-117h-355v117l116 -8v1484l-116 -4v113zM271 109h288q33 0 51 4q45 11 45 86v489q0 65 -42 74q-14 3 -38 3h-304v-656z" />
    <glyph glyph-name="ydieresis" unicode="&#xff;" horiz-adv-x="869" 
d="M229 -355l147 421l-246 699l-116 -4v113h353v-113l-116 4l98 -278q54 -161 82 -282q23 91 64 208l124 352l-116 -4v113h353v-113l-116 4l-392 -1120h-119zM285 1222q34 0 58 -24t24 -58q0 -35 -24 -58.5t-59 -23.5q-33 0 -57 24t-24 57q0 35 23.5 59t58.5 24zM585 1222
q34 0 58 -24t24 -58q0 -35 -24 -58.5t-59 -23.5q-33 0 -57 24t-24 57q0 35 23.5 59t58.5 24z" />
    <glyph glyph-name="Cacute" unicode="&#x106;" horiz-adv-x="965" 
d="M512 1434h-121l175 275h118zM876 0h-541q-121 0 -172 44q-54 47 -54 167v945q0 116 62 165q55 44 174 44h516v-341h-123v232h-383q-70 0 -92 -34q-17 -25 -17 -95v-908q0 -69 33 -92q25 -18 94 -18h380v232h123v-341z" />
    <glyph glyph-name="cacute" unicode="&#x107;" horiz-adv-x="729" 
d="M431 1002h-121l175 276h118zM688 0h-418q-174 0 -174 160v548q0 59 8 84q26 82 171 82h394v-232h-116v123h-225q-60 0 -81 -15q-28 -19 -28 -80v-453q0 -56 16 -79q20 -29 76 -29h261v123h116v-232z" />
    <glyph glyph-name="Ccaron" unicode="&#x10c;" horiz-adv-x="965" 
d="M719 1719l-171 -285h-131l-171 285h115l118 -196l118 196h122zM876 0h-541q-121 0 -172 44q-54 47 -54 167v945q0 116 62 165q55 44 174 44h516v-341h-123v232h-383q-70 0 -92 -34q-17 -25 -17 -95v-908q0 -69 33 -92q25 -18 94 -18h380v232h123v-341z" />
    <glyph glyph-name="ccaron" unicode="&#x10d;" horiz-adv-x="729" 
d="M634 1279l-165 -277h-127l-166 277h111l115 -190l114 190h118zM688 0h-418q-174 0 -174 160v548q0 59 8 84q26 82 171 82h394v-232h-116v123h-225q-60 0 -81 -15q-28 -19 -28 -80v-453q0 -56 16 -79q20 -29 76 -29h261v123h116v-232z" />
    <glyph glyph-name="Dslash" unicode="&#x110;" horiz-adv-x="1094" 
d="M220 650h-131v93h131v512l-131 -4v114h625q154 0 212.5 -55t58.5 -208v-838q0 -89 -13 -134q-40 -130 -264 -130h-619v114l131 -4v540zM358 650v-540h362q71 0 99 32t28 104v867q0 48 -4 67q-16 75 -123 75h-362v-512h243v-93h-243z" />
    <glyph glyph-name="dcroat" unicode="&#x111;" horiz-adv-x="904" 
d="M732 1132h116v-93h-116v-930l116 4l2 -113h-603q-49 0 -63 3q-88 15 -88 115v616q0 140 162 140h351v165h-239v93h239v111l-116 -4v113h239v-220zM609 109v656h-310q-62 0 -73 -26q-7 -16 -7 -53v-494q0 -47 18 -65t67 -18h305z" />
    <glyph glyph-name="Gbreve" unicode="&#x11e;" horiz-adv-x="970" 
d="M631 1710h96v-21q0 -104 -62 -163t-167 -59q-104 0 -166.5 59t-62.5 163q0 7 1 21h95q0 -141 133 -141t133 141zM881 0h-542q-123 0 -172 36q-58 43 -58 162v990q0 177 190 177h570v-341h-123v232h-380q-62 0 -87 -17q-33 -22 -33 -83v-948q0 -99 99 -99h399v518h-272
v109h409v-736z" />
    <glyph glyph-name="gbreve" unicode="&#x11f;" horiz-adv-x="894" 
d="M586 1277h90v-21q0 -104 -62.5 -163t-166.5 -59t-166.5 59t-62.5 163q0 7 1 21h89q0 -141 139 -141t139 141zM116 -140h123q0 -74 9 -87q12 -19 78 -19h180q60 0 76 12q21 15 21 75v159h-362q-145 0 -145 130v617q0 127 145 127h599v-113l-114 4v-1001q0 -119 -123 -119
h-371q-72 0 -98 36q-20 27 -20 90q0 13 1 43t1 46zM603 109v656h-276q-66 0 -82 -9q-26 -15 -26 -73v-463q0 -76 17.5 -93.5t87.5 -17.5h279z" />
    <glyph glyph-name="Idotaccent" unicode="&#x130;" horiz-adv-x="573" 
d="M287 1639q35 0 58.5 -24t23.5 -59q0 -34 -24.5 -57.5t-58.5 -23.5q-33 0 -57 24t-24 57q0 35 23.5 59t58.5 24zM89 0v113l130 -4v1147l-130 -4v113h396v-113l-129 4v-1147l129 4v-113h-396z" />
    <glyph glyph-name="dotlessi" unicode="&#x131;" horiz-adv-x="478" 
d="M68 874h239v-765l116 4v-113h-355v113l116 -4v656l-116 -4v113z" />
    <glyph glyph-name="Lslash" unicode="&#x141;" horiz-adv-x="909" 
d="M219 626l-130 -98v117l130 97v514l-130 -4v113h396v-113l-129 4v-452l231 175v-117l-231 -174v-579h389v232h123v-341h-779v113l130 -4v517z" />
    <glyph glyph-name="lslash" unicode="&#x142;" horiz-adv-x="478" 
d="M176 714l-147 -104v116l147 104v413l-108 -4v113h239v-463l143 101v-116l-143 -101v-664l116 4v-113h-355v113l108 -4v605z" />
    <glyph glyph-name="OE" unicode="&#x152;" horiz-adv-x="1552" 
d="M1465 341v-341h-1118q-92 0 -119 6q-30 5 -65 31q-74 54 -74 194v876q0 141 46 196q52 62 190 62h1128v-341h-123v232h-461v-503h436v-109h-436v-535h473v232h123zM356 109h258q71 0 94.5 25t23.5 97v891q0 82 -27 108t-109 26h-245q-81 0 -106 -37q-19 -28 -19 -109
v-868q0 -76 27.5 -104.5t102.5 -28.5z" />
    <glyph glyph-name="oe" unicode="&#x153;" horiz-adv-x="1308" 
d="M1216 233v-88q0 -80 -36.5 -112.5t-118.5 -32.5h-302q-57 0 -89 37q-22 -29 -45 -35q-9 -2 -59 -2h-301q-165 0 -165 137v570q0 167 143 167h330q63 0 97 -42q32 42 96 42h294q66 0 110 -27q53 -33 53 -95v-370h-493v-195q0 -51 24 -67q17 -11 73 -11h201q57 0 69 36
q3 10 3 88h116zM607 196v475q0 58 -22.5 76t-79.5 18h-193q-89 0 -89 -80v-494q0 -49 22 -67q18 -15 68 -15h212q51 0 68 20q14 17 14 67zM730 491h370v200q0 74 -104 74h-177q-89 0 -89 -83v-191z" />
    <glyph glyph-name="Scedilla" unicode="&#x15e;" horiz-adv-x="958" 
d="M511 0v-87q75 0 82 -2q28 -10 28 -66v-106q0 -60 -34 -66q-11 -2 -34 -2h-172v75h136v100h-79v154h-342v341h123v-232h405q78 0 99 26q18 23 18 104v297q0 70 -33 92q-24 17 -95 17h-354q-163 0 -163 186v343q0 112 57 154q49 37 165 37h546v-341h-123v232h-383
q-78 0 -104 -34q-21 -27 -21 -104v-245q0 -84 30 -105q21 -14 108 -14h286q115 0 162 -33q59 -40 59 -149v-383q0 -111 -59 -154q-50 -35 -166 -35h-142z" />
    <glyph glyph-name="scedilla" unicode="&#x15f;" horiz-adv-x="772" 
d="M396 0v-87q75 0 82 -3q28 -9 28 -65v-106q0 -60 -34 -66q-11 -2 -34 -2h-171v75h135v100h-79v154h-241v232h116v-123h275q53 0 70 9q24 14 24 62v127q0 46 -20 60q-16 11 -61 11h-227q-164 0 -164 145v218q0 133 138 133h440v-232h-116v123h-267q-72 0 -72 -64v-153
q0 -61 77 -61h227q98 0 128 -22q40 -27 40 -120v-193q0 -93 -58 -128q-42 -26 -133 -26q-17 0 -51.5 1t-51.5 1z" />
    <glyph glyph-name="Scaron" unicode="&#x160;" horiz-adv-x="958" 
d="M96 0v341h123v-232h404q78 0 100 26q18 23 18 104v297q0 71 -33 93q-25 16 -96 16h-353q-163 0 -163 186v343q0 112 57 155q49 36 166 36h545v-341h-123v232h-383q-78 0 -104 -34q-21 -27 -21 -104v-245q0 -84 30 -104q21 -15 108 -15h285q115 0 163 -33q59 -40 59 -149
v-383q0 -111 -59 -154q-50 -35 -167 -35h-556zM716 1719l-171 -285h-131l-171 285h115l118 -196l118 196h122z" />
    <glyph glyph-name="scaron" unicode="&#x161;" horiz-adv-x="772" 
d="M82 0v232h116v-123h275q53 0 70 9q24 14 24 62v127q0 46 -20 60q-16 11 -61 11h-227q-164 0 -164 145v218q0 133 138 133h440v-232h-116v123h-267q-72 0 -72 -64v-153q0 -61 77 -61h227q97 0 128 -21q40 -28 40 -121v-193q0 -87 -47 -122q-41 -30 -131 -30h-430z
M615 1279l-165 -277h-127l-166 277h111l115 -190l114 190h118z" />
    <glyph glyph-name="Ydieresis" unicode="&#x178;" horiz-adv-x="1107" 
d="M361 0v113l130 -4v521l-347 626l-130 -4v113h415v-113l-130 4l257 -494l255 494l-129 -4v113h412v-113l-130 4l-336 -626v-521l129 4v-113h-396zM404 1639q35 0 58.5 -24t23.5 -59q0 -34 -24.5 -57.5t-58.5 -23.5q-33 0 -57 24t-24 57q0 35 23.5 59t58.5 24zM704 1639
q35 0 58.5 -24t23.5 -59q0 -34 -24.5 -57.5t-58.5 -23.5q-33 0 -57 24t-24 57q0 35 23.5 59t58.5 24z" />
    <glyph glyph-name="Zcaron" unicode="&#x17d;" horiz-adv-x="962" 
d="M58 0v94l667 1162h-504v-232h-123v341h806v-89l-675 -1167h552v232h123v-341h-846zM718 1719l-171 -285h-131l-171 285h115l118 -196l118 196h122z" />
    <glyph glyph-name="zcaron" unicode="&#x17e;" horiz-adv-x="768" 
d="M68 0v91l489 674h-373v-118h-116v227h631v-109l-488 -656h372v123h116v-232h-631zM612 1279l-165 -277h-127l-166 277h111l115 -190l114 190h118z" />
    <glyph glyph-name="florin" unicode="&#x192;" horiz-adv-x="667" 
d="M418 853h130l-18 -96h-130l-135 -695q-18 -93 -54 -130q-41 -41 -132 -41h-134l21 109q96 0 111 4q49 14 62 79l131 674h-129l18 96h130l55 287q18 95 55 131q41 40 134 40h133l-21 -109q-101 0 -113 -3q-49 -13 -62 -81z" />
    <glyph glyph-name="circumflex" unicode="&#x2c6;" horiz-adv-x="1024" 
d="M283 1002l166 277h127l165 -277h-111l-115 190l-114 -190h-118z" />
    <glyph glyph-name="caron" unicode="&#x2c7;" horiz-adv-x="1024" 
d="M741 1279l-165 -277h-127l-166 277h111l115 -190l114 190h118z" />
    <glyph glyph-name="macron" unicode="&#x2c9;" horiz-adv-x="1024" 
d="M307 1093v93h409v-93h-409z" />
    <glyph glyph-name="breve" unicode="&#x2d8;" horiz-adv-x="1024" 
d="M651 1277h90v-21q0 -104 -62.5 -163t-166.5 -59t-166.5 59t-62.5 163q0 7 1 21h89q0 -141 139 -141t139 141z" />
    <glyph glyph-name="dotaccent" unicode="&#x2d9;" horiz-adv-x="1024" 
d="M512 1222q34 0 58 -24t24 -58q0 -35 -24 -58.5t-59 -23.5q-33 0 -57 24t-24 57q0 35 23.5 59t58.5 24z" />
    <glyph glyph-name="ring" unicode="&#x2da;" horiz-adv-x="614" 
d="M307 1297q66 0 111.5 -46t45.5 -112t-46.5 -111t-112.5 -45q-64 0 -109.5 46t-45.5 110q0 66 45.5 112t111.5 46zM307 1215q-32 0 -53.5 -22t-21.5 -54q0 -30 22 -52t52 -22q76 0 76 75q0 32 -21.5 53.5t-53.5 21.5z" />
    <glyph glyph-name="ogonek" unicode="&#x2db;" horiz-adv-x="1024" 
d="M625 0h93l-82 -116v-126h134v-75h-176q-41 0 -52 13t-11 55v93q0 24 94 156z" />
    <glyph glyph-name="tilde" unicode="&#x2dc;" horiz-adv-x="1024" 
d="M290 1042v43q0 137 101 137q37 0 118.5 -33.5t107.5 -33.5q21 0 21 66h96q1 -28 1 -39q0 -137 -96 -137q-38 0 -123 34.5t-109 34.5q-21 0 -21 -72h-96z" />
    <glyph glyph-name="hungarumlaut" unicode="&#x2dd;" horiz-adv-x="1024" 
d="M448 1002h-109l158 276h106zM666 1002h-109l158 276h107z" />
    <glyph glyph-name="Delta" unicode="&#x394;" horiz-adv-x="1260" 
d="M12 0l557 1365h122l557 -1365h-1236zM169 105h921l-460 1130z" />
    <glyph glyph-name="Delta" unicode="&#x2206;" horiz-adv-x="1260" 
d="M12 0l557 1365h122l557 -1365h-1236zM169 105h921l-460 1130z" />
    <glyph glyph-name="Omega" unicode="&#x3a9;" horiz-adv-x="1365" 
d="M57 0v105h398q-400 227 -400 634q0 273 175 463q181 196 451 196q274 0 454 -194q175 -189 175 -465q0 -408 -400 -634h398v-105h-528v99q410 231 410 627q0 228 -136 392q-145 174 -369 174q-227 0 -372 -173q-138 -164 -138 -395q0 -395 410 -625v-99h-528z" />
    <glyph glyph-name="Omega" unicode="&#x2126;" horiz-adv-x="1365" 
d="M57 0v105h398q-400 227 -400 634q0 273 175 463q181 196 451 196q274 0 454 -194q175 -189 175 -465q0 -408 -400 -634h398v-105h-528v99q410 231 410 627q0 228 -136 392q-145 174 -369 174q-227 0 -372 -173q-138 -164 -138 -395q0 -395 410 -625v-99h-528z" />
    <glyph glyph-name="mu" unicode="&#xb5;" horiz-adv-x="963" 
d="M307 14v-364h-123v1115l-116 -4v113h239v-672q0 -60 26 -78q20 -15 79 -15h276v656l-116 -4v113h239v-765l116 4l-4 -113h-554q-31 0 -62 14z" />
    <glyph glyph-name="mu" unicode="&#x3bc;" horiz-adv-x="963" 
d="M307 14v-364h-123v1115l-116 -4v113h239v-672q0 -60 26 -78q20 -15 79 -15h276v656l-116 -4v113h239v-765l116 4l-4 -113h-554q-31 0 -62 14z" />
    <glyph glyph-name="pi" unicode="&#x3c0;" horiz-adv-x="1101" 
d="M187 0v887h-148v93h1023v-93h-147v-887h-113v887h-502v-887h-113z" />
    <glyph glyph-name="endash" unicode="&#x2013;" horiz-adv-x="785" 
d="M82 396v82h621v-82h-621z" />
    <glyph glyph-name="emdash" unicode="&#x2014;" horiz-adv-x="1114" 
d="M0 396v82h1114v-82h-1114z" />
    <glyph glyph-name="quoteleft" unicode="&#x2018;" horiz-adv-x="410" 
d="M314 1365l-181 -485h-92l185 485h88z" />
    <glyph glyph-name="quoteright" unicode="&#x2019;" horiz-adv-x="410" 
d="M314 1365l-181 -485h-92l185 485h88z" />
    <glyph glyph-name="quotesinglbase" unicode="&#x201a;" horiz-adv-x="410" 
d="M314 188l-181 -485h-92l185 485h88z" />
    <glyph glyph-name="quotedblleft" unicode="&#x201c;" horiz-adv-x="577" 
d="M341 1365l-181 -485h-92l185 485h88zM509 1365l-182 -485h-92l185 485h89z" />
    <glyph glyph-name="quotedblright" unicode="&#x201d;" horiz-adv-x="577" 
d="M341 1365l-181 -485h-92l185 485h88zM509 1365l-182 -485h-92l185 485h89z" />
    <glyph glyph-name="quotedblbase" unicode="&#x201e;" horiz-adv-x="577" 
d="M341 177l-181 -485h-92l185 485h88zM509 177l-182 -485h-92l185 485h89z" />
    <glyph glyph-name="dagger" unicode="&#x2020;" horiz-adv-x="869" 
d="M372 1365h123v-341h312v-109h-312v-990h-123v990h-311v109h311v341z" />
    <glyph glyph-name="daggerdbl" unicode="&#x2021;" horiz-adv-x="869" 
d="M372 1365h123v-341h312v-109h-312v-458h312v-109h-312v-423h-123v423h-311v109h311v458h-311v109h311v341z" />
    <glyph glyph-name="bullet" unicode="&#x2022;" horiz-adv-x="1365" 
d="M686 929q101 0 172 -72.5t71 -173.5q0 -103 -71.5 -174.5t-174.5 -71.5q-102 0 -174 71.5t-72 173.5q0 105 72 176t177 71z" />
    <glyph glyph-name="ellipsis" unicode="&#x2026;" horiz-adv-x="983" 
d="M164 150q34 0 58 -23.5t24 -57.5q0 -36 -24 -59.5t-60 -23.5q-33 0 -56.5 24.5t-23.5 57.5q0 34 24 58t58 24zM492 150q34 0 58 -23.5t24 -57.5q0 -36 -24 -59.5t-60 -23.5q-33 0 -56.5 24.5t-23.5 57.5q0 34 24 58t58 24zM819 150q34 0 58 -23.5t24 -57.5
q0 -36 -24 -59.5t-60 -23.5q-33 0 -56.5 24.5t-23.5 57.5q0 34 24 58t58 24z" />
    <glyph glyph-name="perthousand" unicode="&#x2030;" horiz-adv-x="1865" 
d="M491 1190v-427q0 -121 -137 -121h-146q-136 0 -136 121v427q0 121 136 121h146q137 0 137 -121zM338 1237h-113q-64 0 -64 -65v-391q0 -65 64 -65h113q64 0 64 65v391q0 65 -64 65zM1106 1338l-829 -1338h-80l829 1338h80zM1231 548v-427q0 -121 -137 -121h-146
q-136 0 -136 121v427q0 121 136 121h146q137 0 137 -121zM1078 595h-113q-64 0 -64 -65v-391q0 -65 64 -65h113q64 0 64 65v391q0 65 -64 65zM1794 548v-427q0 -121 -137 -121h-146q-136 0 -136 121v427q0 121 136 121h146q137 0 137 -121zM1641 595h-113q-64 0 -64 -65
v-391q0 -65 64 -65h113q64 0 64 65v391q0 65 -64 65z" />
    <glyph glyph-name="guilsinglleft" unicode="&#x2039;" horiz-adv-x="436" 
d="M355 175l-58 -40l-215 302l215 298l58 -44l-183 -254z" />
    <glyph glyph-name="guilsinglright" unicode="&#x203a;" horiz-adv-x="436" 
d="M82 175l183 262l-183 254l57 44l216 -298l-216 -302z" />
    <glyph glyph-name="fraction" unicode="&#x2044;" horiz-adv-x="259" 
d="M584 1338l-829 -1338h-80l829 1338h80z" />
    <glyph glyph-name="franc" unicode="&#x20a3;" horiz-adv-x="1376" 
d="M89 0v110l123 -4v1099l-123 -4v110h766v-331h-117v225h-396v-486h401v-106h-401v-507l123 4v-110h-376zM855 0v106l97 -3v514l-97 -4v106h354q126 0 126 -95v-156h-110v108q0 26 -7 33.5t-35 7.5h-115v-514l96 3v-106h-309z" />
    <glyph glyph-name="trademark" unicode="&#x2122;" horiz-adv-x="1464" 
d="M139 587v77l105 -3v630h-132v-168h-85v242h527v-242h-85v168h-132v-630l104 3v-77h-302zM622 587v76l76 -2v630l-76 -3v77h191l180 -410q13 -30 23 -63q8 34 23 68l179 405h195v-77l-76 3v-630l76 2v-76h-246v77l77 -3v466q0 43 3 93q-6 -17 -11 -28l-187 -407h-66
l-196 436q4 -29 4 -73v-487l77 2v-76h-246z" />
    <glyph glyph-name="partialdiff" unicode="&#x2202;" horiz-adv-x="1024" 
d="M189 1276l15 99q157 -24 265 -71q237 -104 365 -334q117 -212 117 -485q0 -357 -266 -474q-84 -37 -176 -37q-188 0 -315 140q-122 136 -122 326q0 188 122 318q124 134 311 134q110 0 181 -42q61 -35 133 -129q-54 156 -96 227q-79 135 -230 223q-138 81 -304 105z
M524 799q-148 0 -246 -109q-94 -105 -94 -255q0 -147 92 -253q96 -110 241 -110q147 0 239 116q84 107 84 258q0 149 -82 247q-88 106 -234 106z" />
    <glyph glyph-name="product" unicode="&#x220f;" horiz-adv-x="1365" 
d="M59 1536h1247v-99h-153v-1850h153v-99h-423v99h161v1850h-723v-1850h159v-99h-421v99h153v1850h-153v99z" />
    <glyph glyph-name="summation" unicode="&#x2211;" horiz-adv-x="1365" 
d="M1211 1536v-455h-110l-10 343h-888l514 -870l-513 -956h906l6 344h114v-454h-1159v129l505 937l-505 857v125h1140z" />
    <glyph glyph-name="minus" unicode="&#x2212;" horiz-adv-x="806" 
d="M82 601v109h642v-109h-642z" />
    <glyph glyph-name="periodcentered" unicode="&#x2219;" horiz-adv-x="328" 
d="M164 546q34 0 58 -23.5t24 -57.5q0 -36 -24 -59.5t-60 -23.5q-33 0 -56.5 24.5t-23.5 57.5q0 34 24 58t58 24z" />
    <glyph glyph-name="radical" unicode="&#x221a;" horiz-adv-x="1365" 
d="M1365 1693v-101h-408l-486 -1592h-125l-187 622h-159v101h232q62 -192 168 -578h6q54 205 221 753l242 795h496z" />
    <glyph glyph-name="infinity" unicode="&#x221e;" horiz-adv-x="1365" 
d="M684 633q-83 -120 -144 -169q-90 -72 -206 -72q-134 0 -215 89q-80 86 -80 221q0 131 82.5 215.5t213.5 84.5q186 0 346 -241q161 241 350 241q134 0 216 -88q79 -85 79 -220q0 -131 -82 -216.5t-213 -85.5q-188 0 -347 241zM729 697q141 -223 295 -223q95 0 153 66
q55 63 55 159q0 94 -58.5 157.5t-152.5 63.5q-139 0 -266 -183q-10 -13 -26 -40zM636 696q-143 224 -296 224q-95 0 -151 -64t-56 -160q0 -95 58 -158.5t152 -63.5q148 0 293 222z" />
    <glyph glyph-name="integral" unicode="&#x222b;" horiz-adv-x="1024" 
d="M227 -490l28 111q41 -20 79 -20q76 0 101 58q14 32 14 185v1316q0 188 16 240q19 62 77 99t136 37q44 0 119 -22l-28 -111q-45 21 -80 21q-82 0 -104 -73q-10 -33 -10 -142v-1371q0 -144 -11 -188q-25 -94 -119 -136q-58 -25 -124 -25q-33 0 -94 21z" />
    <glyph glyph-name="approxequal" unicode="&#x2248;" horiz-adv-x="1024" 
d="M94 712l-71 48q110 218 270 218q77 0 226.5 -77.5t216.5 -77.5q104 0 195 153l71 -47q-114 -219 -270 -219q-78 0 -223.5 77.5t-221.5 77.5q-103 0 -193 -153zM94 386l-71 47q112 218 270 218q77 0 225.5 -77t217.5 -77q105 0 195 153l71 -48q-114 -219 -269 -219
q-77 0 -224.5 77.5t-221.5 77.5q-102 0 -193 -152z" />
    <glyph glyph-name="approxequal" unicode="&#x22f2;" horiz-adv-x="1024" 
d="M94 712l-71 48q110 218 270 218q77 0 226.5 -77.5t216.5 -77.5q104 0 195 153l71 -47q-114 -219 -270 -219q-78 0 -223.5 77.5t-221.5 77.5q-103 0 -193 -153zM94 386l-71 47q112 218 270 218q77 0 225.5 -77t217.5 -77q105 0 195 153l71 -48q-114 -219 -269 -219
q-77 0 -224.5 77.5t-221.5 77.5q-102 0 -193 -152z" />
    <glyph glyph-name="notequal" unicode="&#x2260;" horiz-adv-x="806" 
d="M315 587l57 137h-290v109h335l74 178l101 -42l-56 -136h188v-109h-234l-56 -137h290v-109h-335l-74 -178l-101 42l56 136h-188v109h233z" />
    <glyph glyph-name="lessequal" unicode="&#x2264;" horiz-adv-x="1024" 
d="M955 1193v-120l-750 -302l750 -303v-119l-887 367v110zM955 289v-110h-887v110h887z" />
    <glyph glyph-name="greaterequal" unicode="&#x2265;" horiz-adv-x="1024" 
d="M68 1193l887 -367v-110l-887 -367v119l750 303l-750 302v120zM68 289h887v-110h-887v110z" />
    <glyph glyph-name="SF370000" unicode="&#x255f;" horiz-adv-x="1168" 
d="M14 0v115l131 -5l331 1255h231l317 -1255l131 5v-115h-403v115l131 -5l-94 365h-406l-96 -365l131 5v-115h-404zM410 585h356l-177 675z" />
    <glyph glyph-name="SF420000" unicode="&#x2560;" horiz-adv-x="1044" 
d="M89 0v114l131 -4v1145l-131 -4v114h868v-338h-124v228h-475v-503h433v-110h-433v-532h475v228h124v-338h-868z" />
    <glyph glyph-name="SF190000" unicode="&#x2561;" horiz-adv-x="573" 
d="M89 0v113l130 -4v1147l-130 -4v113h396v-113l-129 4v-1147l129 4v-113h-396z" />
    <glyph glyph-name="SF200000" unicode="&#x2562;" horiz-adv-x="996" 
d="M109 204v940q0 182 121 213q34 8 120 8h318q118 0 168.5 -53t50.5 -172v-926q0 -214 -215 -214h-351q-212 0 -212 204zM387 109h220q96 0 124 47q19 33 19 139v829q0 74 -22 101q-25 31 -101 31h-247q-78 0 -106 -29.5t-28 -108.5v-832q0 -101 20 -133q28 -44 121 -44z
" />
    <glyph glyph-name="SF230000" unicode="&#x2563;" horiz-adv-x="1158" 
d="M55 1365h396v-113l-129 4v-1010q0 -82 27.5 -109.5t109.5 -27.5h258q69 0 94.5 28t25.5 98v1021l-130 -4v113h396v-113l-129 4v-1034q0 -118 -50.5 -170t-167.5 -52h-366q-205 0 -205 232v1024l-130 -4v113z" />
    <glyph glyph-name="SF470000" unicode="&#x2564;" horiz-adv-x="1107" 
d="M361 0v113l130 -4v521l-347 626l-130 -4v113h415v-113l-130 4l257 -494l255 494l-129 -4v113h412v-113l-130 4l-336 -626v-521l129 4v-113h-396z" />
    <glyph glyph-name="SF480000" unicode="&#x2565;" horiz-adv-x="854" 
d="M813 0h-589q-135 0 -135 109v261q0 122 126 122h365v199q0 74 -87 74h-193q-60 0 -71 -41q-1 -4 -1 -97h-116v120q0 127 122 127h326q143 0 143 -132v-633l110 4v-113zM580 109v274h-283q-85 0 -85 -62v-143q0 -69 85 -69h283z" />
    <glyph glyph-name="SF410000" unicode="&#x2566;" horiz-adv-x="796" 
d="M708 227v-89q0 -81 -45 -112q-37 -26 -122 -26h-291q-86 0 -120 37.5t-34 124.5v561q0 81 32.5 116t113.5 35h310q156 0 156 -152v-336h-489v-200q0 -51 19 -66q16 -11 70 -11h187q73 0 88 22q9 15 9 96h116zM219 495h366v190q0 53 -18 68q-16 12 -69 12h-199
q-45 0 -62.5 -17t-17.5 -64v-189z" />
    <glyph glyph-name="SF450000" unicode="&#x2567;" horiz-adv-x="478" 
d="M68 874h239v-765l116 4v-113h-355v113l116 -4v656l-116 -4v113zM234 1224q36 0 61 -25t25 -61t-25.5 -60.5t-61.5 -24.5q-35 0 -59.5 25t-24.5 60q0 36 24.5 61t60.5 25z" />
    <glyph glyph-name="SF460000" unicode="&#x2568;" horiz-adv-x="478" 
d="M68 874h239v-765l116 4v-113h-355v113l116 -4v656l-116 -4v113z" />
    <glyph glyph-name="SF400000" unicode="&#x2569;" horiz-adv-x="828" 
d="M273 874h292q93 0 125 -23q43 -30 43 -124v-580q0 -147 -168 -147h-295q-174 0 -174 131v606q0 86 48 115q36 22 129 22zM219 691v-483q0 -61 21.5 -80t81.5 -19h199q61 0 77 25q12 18 12 84v473q0 47 -24 62q-18 12 -65 12h-223q-79 0 -79 -74z" />
    <glyph glyph-name="SF540000" unicode="&#x256a;" horiz-adv-x="963" 
d="M68 874h239v-672q0 -60 26 -79q20 -14 79 -14h276v656l-116 -4v113h239v-765l116 4l-4 -113h-589q-78 0 -110 23q-40 29 -40 106v636l-116 -4v113z" />
    <glyph glyph-name="SF530000" unicode="&#x256b;" horiz-adv-x="869" 
d="M229 -355l147 421l-246 699l-116 -4v113h353v-113l-116 4l98 -278q54 -161 82 -282q23 91 64 208l124 352l-116 -4v113h353v-113l-116 4l-392 -1120h-119z" />
    <glyph glyph-name="lozenge" unicode="&#x25ca;" horiz-adv-x="1365" 
d="M683 1419l532 -736l-532 -736l-532 736zM683 1237l-404 -554l404 -555l403 555z" />
    <glyph glyph-name="fi" unicode="&#xf001;" horiz-adv-x="966" 
d="M796 874v-765l116 4v-113h-355v113l116 -4v656h-369v-656l116 4v-113h-355v113l116 -4v656h-116v109h116v307q0 96 36 133.5t133 37.5h122v-109q-14 0 -39 1t-36 1q-93 0 -93 -86v-285h492zM723 1166q35 0 58.5 -24t23.5 -59q0 -34 -24.5 -57.5t-58.5 -23.5q-33 0 -57 24
t-24 57q0 35 23.5 59t58.5 24z" />
    <glyph glyph-name="fl" unicode="&#xf002;" horiz-adv-x="966" 
d="M796 1352v-1243l116 4v-113h-355v113l116 -4v1134h-274q-53 0 -71 -13q-24 -17 -24 -71v-285h116v-109h-116v-656l116 4v-113h-355v113l116 -4v656h-116v109h116v307q0 96 36 133.5t133 37.5h446z" />
    <glyph glyph-name="glyph233" 
 />
    <glyph glyph-name="glyph234" 
 />
    <glyph glyph-name="glyph226" 
 />
    <glyph glyph-name="glyph227" 
 />
    <glyph glyph-name="glyph228" 
 />
    <glyph glyph-name="glyph229" 
 />
    <glyph glyph-name="glyph235" 
 />
    <glyph glyph-name="glyph279" 
 />
    <glyph glyph-name="glyph236" 
 />
    <glyph glyph-name="glyph237" 
 />
    <glyph glyph-name="glyph282" 
 />
    <glyph glyph-name="glyph230" 
 />
    <glyph glyph-name="glyph231" 
 />
    <glyph glyph-name="glyph242" 
 />
    <glyph glyph-name="glyph243" 
 />
    <glyph glyph-name="glyph239" 
 />
    <glyph glyph-name="glyph244" 
 />
    <glyph glyph-name="glyph241" 
 />
    <glyph glyph-name="glyph240" 
 />
    <glyph glyph-name="glyph232" 
 />
    <glyph glyph-name="glyph238" 
 />
    <glyph glyph-name="glyph172" horiz-adv-x="971" 
 />
    <glyph glyph-name="apple" unicode="&#xf000;" horiz-adv-x="1365" 
d="M983 1416q-2 -144 -80 -242q-84 -106 -224 -113q5 145 82 239q80 98 222 116zM1276 935q-165 -126 -165 -285q0 -216 204 -305q-58 -142 -133 -247q-109 -153 -211 -153q-41 0 -116.5 30.5t-121.5 30.5q-50 0 -76 -4.5t-97 -33.5q-60 -25 -99 -25q-111 0 -223 167
q-172 256 -172 524q0 183 97 307q106 136 284 136q51 0 139.5 -31t119.5 -31q30 0 124 33t150 33q190 0 296 -146z" />
    <glyph glyph-name="glyph245" 
 />
    <glyph glyph-name="glyph246" 
 />
    <glyph glyph-name="glyph247" 
 />
    <glyph glyph-name="glyph248" 
 />
    <glyph glyph-name="glyph249" 
 />
    <glyph glyph-name="glyph250" 
 />
    <glyph glyph-name="glyph251" 
 />
    <glyph glyph-name="glyph252" 
 />
    <glyph glyph-name="glyph253" 
 />
    <glyph glyph-name="glyph254" 
 />
    <glyph glyph-name="glyph255" 
 />
    <glyph glyph-name="glyph256" 
 />
    <glyph glyph-name="glyph257" 
 />
    <glyph glyph-name="nonbreakingspace" unicode="&#xa0;" 
 />
    <glyph glyph-name="sfthyphen" unicode="&#xad;" horiz-adv-x="369" 
d="M0 396v82h369v-82h-369z" />
    <glyph glyph-name="glyph294" horiz-adv-x="1024" 
d="M382 1639q35 0 58.5 -24t23.5 -59q0 -34 -24.5 -57.5t-58.5 -23.5q-33 0 -57 24t-24 57q0 35 23.5 59t58.5 24zM641 1639q35 0 58.5 -24t23.5 -59q0 -34 -24.5 -57.5t-58.5 -23.5q-33 0 -57 24t-24 57q0 35 23.5 59t58.5 24z" />
    <glyph glyph-name="glyph295" horiz-adv-x="1024" 
d="M512 1639q35 0 58.5 -24t23.5 -59q0 -34 -24.5 -57.5t-58.5 -23.5q-33 0 -57 24t-24 57q0 35 23.5 59t58.5 24z" />
    <glyph glyph-name="glyph296" horiz-adv-x="1024" 
d="M645 1710h96v-21q0 -104 -62 -163t-167 -59q-104 0 -166.5 59t-62.5 163q0 7 1 21h95q0 -141 133 -141t133 141z" />
    <glyph glyph-name="glyph297" horiz-adv-x="1024" 
d="M749 1719l-171 -285h-131l-171 285h115l118 -196l118 196h122z" />
    <glyph glyph-name="glyph298" horiz-adv-x="1024" 
d="M276 1434l171 285h131l171 -285h-115l-119 196l-117 -196h-122z" />
    <glyph glyph-name="glyph299" horiz-adv-x="1024" 
d="M483 1434l-172 275h118l175 -275h-121z" />
    <glyph glyph-name="glyph300" horiz-adv-x="1024" 
d="M541 1434h-121l175 275h118z" />
    <glyph glyph-name="glyph301" horiz-adv-x="1024" 
d="M396 1222q34 0 58 -24t24 -58q0 -35 -24 -58.5t-59 -23.5q-33 0 -57 24t-24 57q0 35 23.5 59t58.5 24zM628 1222q34 0 58 -24t24 -58q0 -35 -24 -58.5t-59 -23.5q-33 0 -57 24t-24 57q0 35 23.5 59t58.5 24z" />
    <glyph glyph-name="glyph302" horiz-adv-x="1024" 
d="M362 1639q35 0 58.5 -24t23.5 -59q0 -34 -24.5 -57.5t-58.5 -23.5q-33 0 -57 24t-24 57q0 35 23.5 59t58.5 24zM662 1639q35 0 58.5 -24t23.5 -59q0 -34 -24.5 -57.5t-58.5 -23.5q-33 0 -57 24t-24 57q0 35 23.5 59t58.5 24z" />
    <glyph glyph-name="glyph303" horiz-adv-x="1024" 
d="M290 1465v43q0 137 101 137q37 0 118.5 -33.5t107.5 -33.5q21 0 21 66h96q1 -28 1 -39q0 -137 -96 -137q-38 0 -123 34.5t-109 34.5q-21 0 -21 -72h-96z" />
    <glyph glyph-name="u20AB" unicode="&#x20ab;" horiz-adv-x="681" 
d="M538 1203h87v-70h-87v-696l87 3l1 -84h-451q-37 0 -47 2q-66 11 -66 86v461q0 105 121 105h263v123h-179v70h179v83l-87 -3v84h179v-164zM446 437v491h-232q-46 0 -55 -19q-5 -12 -5 -40v-370q0 -62 64 -62h228zM88 193v81h452v-81h-452z" />
    <glyph glyph-name="glyph305" horiz-adv-x="410" 
d="M324 1365l-181 -335h-102l185 335h98z" />
    <glyph glyph-name="glyph306" horiz-adv-x="683" 
d="M490 990v136h67q25 0 25 29v62q0 31 -28 31h-11q-33 0 -33 -34v-11h-68v64q0 47 52 47h106q55 0 55 -55v-143q0 -57 -57 -57h-40v-69h-68z" />
    <glyph glyph-name="glyph307" 
 />
    <glyph glyph-name="glyph308" 
 />
    <glyph glyph-name="glyph309" horiz-adv-x="1168" 
d="M354 1430l166 277h127l165 -277h-111l-115 190l-114 -190h-118zM560 1750h-121l175 276h118z" />
    <glyph glyph-name="glyph310" horiz-adv-x="1168" 
d="M354 1430l166 277h127l165 -277h-111l-115 190l-114 -190h-118zM613 1750l-172 276h118l175 -276h-121z" />
    <glyph glyph-name="glyph311" horiz-adv-x="1168" 
d="M354 1430l166 277h127l165 -277h-111l-115 190l-114 -190h-118zM703 1698v136h67q25 0 25 29v62q0 31 -28 31h-11q-33 0 -33 -34v-11h-68v64q0 47 52 47h106q55 0 55 -55v-143q0 -57 -57 -57h-40v-69h-68z" />
    <glyph glyph-name="glyph312" horiz-adv-x="1168" 
d="M354 1430l166 277h127l165 -277h-111l-115 190l-114 -190h-118zM397 1770v43q0 137 101 137q37 0 118.5 -33.5t107.5 -33.5q21 0 21 66h96q1 -28 1 -39q0 -137 -96 -137q-38 0 -123 34.5t-109 34.5q-21 0 -21 -72h-96z" />
    <glyph glyph-name="glyph313" horiz-adv-x="854" 
d="M198 1002l166 277h127l165 -277h-111l-115 190l-114 -190h-118zM404 1322h-121l175 276h118z" />
    <glyph glyph-name="glyph314" horiz-adv-x="854" 
d="M198 1002l166 277h127l165 -277h-111l-115 190l-114 -190h-118zM457 1322l-172 276h118l175 -276h-121z" />
    <glyph glyph-name="glyph315" horiz-adv-x="854" 
d="M198 1002l166 277h127l165 -277h-111l-115 190l-114 -190h-118zM547 1270v136h67q25 0 25 29v62q0 31 -28 31h-11q-33 0 -33 -34v-11h-68v64q0 47 52 47h106q55 0 55 -55v-143q0 -57 -57 -57h-40v-69h-68z" />
    <glyph glyph-name="glyph316" horiz-adv-x="854" 
d="M198 1002l166 277h127l165 -277h-111l-115 190l-114 -190h-118zM240 1342v43q0 137 101 137q37 0 118.5 -33.5t107.5 -33.5q21 0 21 66h96q1 -28 1 -39q0 -137 -96 -137q-38 0 -123 34.5t-109 34.5q-21 0 -21 -72h-96z" />
    <glyph glyph-name="glyph317" horiz-adv-x="854" 
d="M566 1263h90v-21q0 -104 -62.5 -163t-166.5 -59t-166.5 59t-62.5 163q0 7 1 21h89q0 -141 139 -141t139 141zM444 1322h-121l175 276h118z" />
    <glyph glyph-name="glyph318" horiz-adv-x="854" 
d="M566 1263h90v-21q0 -104 -62.5 -163t-166.5 -59t-166.5 59t-62.5 163q0 7 1 21h89q0 -141 139 -141t139 141zM407 1322l-172 276h118l175 -276h-121z" />
    <glyph glyph-name="glyph319" horiz-adv-x="854" 
d="M566 1263h90v-21q0 -104 -62.5 -163t-166.5 -59t-166.5 59t-62.5 163q0 7 1 21h89q0 -141 139 -141t139 141zM380 1270v136h67q25 0 25 29v62q0 31 -28 31h-11q-33 0 -33 -34v-11h-68v64q0 47 52 47h106q55 0 55 -55v-143q0 -57 -57 -57h-40v-69h-68z" />
    <glyph glyph-name="glyph320" horiz-adv-x="854" 
d="M566 1263h90v-21q0 -104 -62.5 -163t-166.5 -59t-166.5 59t-62.5 163q0 7 1 21h89q0 -141 139 -141t139 141zM230 1342v43q0 137 101 137q37 0 118.5 -33.5t107.5 -33.5q21 0 21 66h96q1 -28 1 -39q0 -137 -96 -137q-38 0 -123 34.5t-109 34.5q-21 0 -21 -72h-96z" />
    <glyph glyph-name="glyph321" unicode="&#x102;" horiz-adv-x="1168" 
d="M14 0v115l131 -5l331 1255h231l317 -1255l131 5v-115h-403v115l131 -5l-94 365h-406l-96 -365l131 5v-115h-404zM410 585h356l-177 675zM724 1693h90v-21q0 -104 -62.5 -163t-166.5 -59t-166.5 59t-62.5 163q0 7 1 21h89q0 -141 139 -141t139 141z" />
    <glyph glyph-name="glyph322" unicode="&#x103;" horiz-adv-x="854" 
d="M813 0h-589q-135 0 -135 109v261q0 122 126 122h365v199q0 74 -87 74h-193q-60 0 -71 -41q-1 -4 -1 -97h-116v120q0 127 122 127h326q143 0 143 -132v-633l110 4v-113zM580 109v274h-283q-85 0 -85 -62v-143q0 -69 85 -69h283zM566 1263h90v-21q0 -104 -62.5 -163
t-166.5 -59t-166.5 59t-62.5 163q0 7 1 21h89q0 -141 139 -141t139 141z" />
    <glyph glyph-name="glyph323" unicode="&#x128;" horiz-adv-x="573" 
d="M89 0v113l130 -4v1147l-130 -4v113h396v-113l-129 4v-1147l129 4v-113h-396zM66 1465v43q0 137 101 137q37 0 118.5 -33.5t107.5 -33.5q21 0 21 66h96q1 -28 1 -39q0 -137 -96 -137q-38 0 -123 34.5t-109 34.5q-21 0 -21 -72h-96z" />
    <glyph glyph-name="glyph324" unicode="&#x129;" horiz-adv-x="478" 
d="M68 874h239v-765l116 4v-113h-355v113l116 -4v656l-116 -4v113zM19 1042v43q0 137 101 137q37 0 118.5 -33.5t107.5 -33.5q21 0 21 66h96q1 -28 1 -39q0 -137 -96 -137q-38 0 -123 34.5t-109 34.5q-21 0 -21 -72h-96z" />
    <glyph glyph-name="glyph325" unicode="&#x168;" horiz-adv-x="1158" 
d="M55 1365h396v-113l-129 4v-1010q0 -82 27.5 -109.5t109.5 -27.5h258q69 0 94.5 28t25.5 98v1021l-130 -4v113h396v-113l-129 4v-1034q0 -118 -50.5 -170t-167.5 -52h-366q-205 0 -205 232v1024l-130 -4v113zM366 1465v43q0 137 101 137q37 0 118.5 -33.5t107.5 -33.5
q21 0 21 66h96q1 -28 1 -39q0 -137 -96 -137q-38 0 -123 34.5t-109 34.5q-21 0 -21 -72h-96z" />
    <glyph glyph-name="glyph326" unicode="&#x169;" horiz-adv-x="963" 
d="M68 874h239v-672q0 -60 26 -79q20 -14 79 -14h276v656l-116 -4v113h239v-765l116 4l-4 -113h-589q-78 0 -110 23q-40 29 -40 106v636l-116 -4v113zM263 1042v43q0 137 101 137q37 0 118.5 -33.5t107.5 -33.5q21 0 21 66h96q1 -28 1 -39q0 -137 -96 -137q-38 0 -123 34.5
t-109 34.5q-21 0 -21 -72h-96z" />
    <glyph glyph-name="glyph327" unicode="&#x1a0;" horiz-adv-x="1021" 
d="M109 204v940q0 182 121 213q34 8 120 8h318q118 0 168.5 -53t50.5 -172v-926q0 -214 -215 -214h-351q-212 0 -212 204zM387 109h220q96 0 124 47q19 33 19 139v829q0 74 -22 101q-25 31 -101 31h-247q-78 0 -106 -29.5t-28 -108.5v-832q0 -101 20 -133q28 -44 121 -44z
M1056 1445l-181 -335h-102l185 335h98z" />
    <glyph glyph-name="glyph328" unicode="&#x1a1;" horiz-adv-x="828" 
d="M273 874h292q93 0 125 -23q43 -30 43 -124v-580q0 -147 -168 -147h-295q-174 0 -174 131v606q0 86 48 115q36 22 129 22zM219 691v-483q0 -61 21.5 -80t81.5 -19h199q61 0 77 25q12 18 12 84v473q0 47 -24 62q-18 12 -65 12h-223q-79 0 -79 -74zM914 1022l-181 -335h-102
l185 335h98z" />
    <glyph glyph-name="glyph329" unicode="&#x1af;" horiz-adv-x="1178" 
d="M55 1365h396v-113l-129 4v-1010q0 -82 27.5 -109.5t109.5 -27.5h258q69 0 94.5 28t25.5 98v1021l-130 -4v113h396v-113l-129 4v-1034q0 -118 -50.5 -170t-167.5 -52h-366q-205 0 -205 232v1024l-130 -4v113zM1216 1445l-181 -335h-102l185 335h98z" />
    <glyph glyph-name="glyph330" unicode="&#x1b0;" horiz-adv-x="963" 
d="M68 874h239v-672q0 -60 26 -79q20 -14 79 -14h276v656l-116 -4v113h239v-765l116 4l-4 -113h-589q-78 0 -110 23q-40 29 -40 106v636l-116 -4v113zM991 1022l-181 -335h-102l185 335h98z" />
    <glyph glyph-name="glyph331" unicode="&#x1ea0;" horiz-adv-x="1168" 
d="M14 0v115l131 -5l331 1255h231l317 -1255l131 5v-115h-403v115l131 -5l-94 365h-406l-96 -365l131 5v-115h-404zM410 585h356l-177 675zM591 -119q34 0 58 -23.5t24 -57.5q0 -36 -24 -59.5t-60 -23.5q-33 0 -56.5 24.5t-23.5 57.5q0 34 24 58t58 24z" />
    <glyph glyph-name="glyph332" unicode="&#x1ea1;" horiz-adv-x="854" 
d="M813 0h-589q-135 0 -135 109v261q0 122 126 122h365v199q0 74 -87 74h-193q-60 0 -71 -41q-1 -4 -1 -97h-116v120q0 127 122 127h326q143 0 143 -132v-633l110 4v-113zM580 109v274h-283q-85 0 -85 -62v-143q0 -69 85 -69h283zM431 -119q34 0 58 -23.5t24 -57.5
q0 -36 -24 -59.5t-60 -23.5q-33 0 -56.5 24.5t-23.5 57.5q0 34 24 58t58 24z" />
    <glyph glyph-name="glyph333" unicode="&#x1ea2;" horiz-adv-x="1168" 
d="M14 0v115l131 -5l331 1255h231l317 -1255l131 5v-115h-403v115l131 -5l-94 365h-406l-96 -365l131 5v-115h-404zM410 585h356l-177 675zM544 1420v136h67q25 0 25 29v62q0 31 -28 31h-11q-33 0 -33 -34v-11h-68v64q0 47 52 47h106q55 0 55 -55v-143q0 -57 -57 -57h-40
v-69h-68z" />
    <glyph glyph-name="glyph334" unicode="&#x1ea3;" horiz-adv-x="854" 
d="M813 0h-589q-135 0 -135 109v261q0 122 126 122h365v199q0 74 -87 74h-193q-60 0 -71 -41q-1 -4 -1 -97h-116v120q0 127 122 127h326q143 0 143 -132v-633l110 4v-113zM580 109v274h-283q-85 0 -85 -62v-143q0 -69 85 -69h283zM373 990v136h67q25 0 25 29v62q0 31 -28 31
h-11q-33 0 -33 -34v-11h-68v64q0 47 52 47h106q55 0 55 -55v-143q0 -57 -57 -57h-40v-69h-68z" />
    <glyph glyph-name="glyph335" unicode="&#x1ea4;" horiz-adv-x="1168" 
d="M14 0v115l131 -5l331 1255h231l317 -1255l131 5v-115h-403v115l131 -5l-94 365h-406l-96 -365l131 5v-115h-404zM410 585h356l-177 675zM354 1430l166 277h127l165 -277h-111l-115 190l-114 -190h-118zM560 1750h-121l175 276h118z" />
    <glyph glyph-name="glyph336" unicode="&#x1ea5;" horiz-adv-x="854" 
d="M813 0h-589q-135 0 -135 109v261q0 122 126 122h365v199q0 74 -87 74h-193q-60 0 -71 -41q-1 -4 -1 -97h-116v120q0 127 122 127h326q143 0 143 -132v-633l110 4v-113zM580 109v274h-283q-85 0 -85 -62v-143q0 -69 85 -69h283zM198 1002l166 277h127l165 -277h-111
l-115 190l-114 -190h-118zM404 1322h-121l175 276h118z" />
    <glyph glyph-name="glyph337" unicode="&#x1ea6;" horiz-adv-x="1168" 
d="M14 0v115l131 -5l331 1255h231l317 -1255l131 5v-115h-403v115l131 -5l-94 365h-406l-96 -365l131 5v-115h-404zM410 585h356l-177 675zM354 1430l166 277h127l165 -277h-111l-115 190l-114 -190h-118zM613 1750l-172 276h118l175 -276h-121z" />
    <glyph glyph-name="glyph338" unicode="&#x1ea7;" horiz-adv-x="854" 
d="M813 0h-589q-135 0 -135 109v261q0 122 126 122h365v199q0 74 -87 74h-193q-60 0 -71 -41q-1 -4 -1 -97h-116v120q0 127 122 127h326q143 0 143 -132v-633l110 4v-113zM580 109v274h-283q-85 0 -85 -62v-143q0 -69 85 -69h283zM198 1002l166 277h127l165 -277h-111
l-115 190l-114 -190h-118zM457 1322l-172 276h118l175 -276h-121z" />
    <glyph glyph-name="glyph339" unicode="&#x1ea8;" horiz-adv-x="1168" 
d="M14 0v115l131 -5l331 1255h231l317 -1255l131 5v-115h-403v115l131 -5l-94 365h-406l-96 -365l131 5v-115h-404zM410 585h356l-177 675zM354 1430l166 277h127l165 -277h-111l-115 190l-114 -190h-118zM703 1698v136h67q25 0 25 29v62q0 31 -28 31h-11q-33 0 -33 -34v-11
h-68v64q0 47 52 47h106q55 0 55 -55v-143q0 -57 -57 -57h-40v-69h-68z" />
    <glyph glyph-name="glyph340" unicode="&#x1ea9;" horiz-adv-x="854" 
d="M813 0h-589q-135 0 -135 109v261q0 122 126 122h365v199q0 74 -87 74h-193q-60 0 -71 -41q-1 -4 -1 -97h-116v120q0 127 122 127h326q143 0 143 -132v-633l110 4v-113zM580 109v274h-283q-85 0 -85 -62v-143q0 -69 85 -69h283zM198 1002l166 277h127l165 -277h-111
l-115 190l-114 -190h-118zM547 1270v136h67q25 0 25 29v62q0 31 -28 31h-11q-33 0 -33 -34v-11h-68v64q0 47 52 47h106q55 0 55 -55v-143q0 -57 -57 -57h-40v-69h-68z" />
    <glyph glyph-name="glyph341" unicode="&#x1eaa;" horiz-adv-x="1168" 
d="M14 0v115l131 -5l331 1255h231l317 -1255l131 5v-115h-403v115l131 -5l-94 365h-406l-96 -365l131 5v-115h-404zM410 585h356l-177 675zM354 1430l166 277h127l165 -277h-111l-115 190l-114 -190h-118zM397 1770v43q0 137 101 137q37 0 118.5 -33.5t107.5 -33.5
q21 0 21 66h96q1 -28 1 -39q0 -137 -96 -137q-38 0 -123 34.5t-109 34.5q-21 0 -21 -72h-96z" />
    <glyph glyph-name="glyph342" unicode="&#x1eab;" horiz-adv-x="854" 
d="M813 0h-589q-135 0 -135 109v261q0 122 126 122h365v199q0 74 -87 74h-193q-60 0 -71 -41q-1 -4 -1 -97h-116v120q0 127 122 127h326q143 0 143 -132v-633l110 4v-113zM580 109v274h-283q-85 0 -85 -62v-143q0 -69 85 -69h283zM198 1002l166 277h127l165 -277h-111
l-115 190l-114 -190h-118zM240 1342v43q0 137 101 137q37 0 118.5 -33.5t107.5 -33.5q21 0 21 66h96q1 -28 1 -39q0 -137 -96 -137q-38 0 -123 34.5t-109 34.5q-21 0 -21 -72h-96z" />
    <glyph glyph-name="glyph343" unicode="&#x1eac;" horiz-adv-x="1168" 
d="M14 0v115l131 -5l331 1255h231l317 -1255l131 5v-115h-403v115l131 -5l-94 365h-406l-96 -365l131 5v-115h-404zM410 585h356l-177 675zM354 1430l166 277h127l165 -277h-111l-115 190l-114 -190h-118zM591 -119q34 0 58 -23.5t24 -57.5q0 -36 -24 -59.5t-60 -23.5
q-33 0 -56.5 24.5t-23.5 57.5q0 34 24 58t58 24z" />
    <glyph glyph-name="glyph344" unicode="&#x1ead;" horiz-adv-x="854" 
d="M813 0h-589q-135 0 -135 109v261q0 122 126 122h365v199q0 74 -87 74h-193q-60 0 -71 -41q-1 -4 -1 -97h-116v120q0 127 122 127h326q143 0 143 -132v-633l110 4v-113zM580 109v274h-283q-85 0 -85 -62v-143q0 -69 85 -69h283zM198 1002l166 277h127l165 -277h-111
l-115 190l-114 -190h-118zM431 -119q34 0 58 -23.5t24 -57.5q0 -36 -24 -59.5t-60 -23.5q-33 0 -56.5 24.5t-23.5 57.5q0 34 24 58t58 24z" />
    <glyph glyph-name="glyph345" unicode="&#x1eae;" horiz-adv-x="1168" 
d="M14 0v115l131 -5l331 1255h231l317 -1255l131 5v-115h-403v115l131 -5l-94 365h-406l-96 -365l131 5v-115h-404zM410 585h356l-177 675zM724 1693h90v-21q0 -104 -62.5 -163t-166.5 -59t-166.5 59t-62.5 163q0 7 1 21h89q0 -141 139 -141t139 141zM602 1752h-121l175 276
h118z" />
    <glyph glyph-name="glyph346" unicode="&#x1eaf;" horiz-adv-x="854" 
d="M813 0h-589q-135 0 -135 109v261q0 122 126 122h365v199q0 74 -87 74h-193q-60 0 -71 -41q-1 -4 -1 -97h-116v120q0 127 122 127h326q143 0 143 -132v-633l110 4v-113zM580 109v274h-283q-85 0 -85 -62v-143q0 -69 85 -69h283zM566 1263h90v-21q0 -104 -62.5 -163
t-166.5 -59t-166.5 59t-62.5 163q0 7 1 21h89q0 -141 139 -141t139 141zM444 1322h-121l175 276h118z" />
    <glyph glyph-name="glyph347" unicode="&#x1eb0;" horiz-adv-x="1168" 
d="M14 0v115l131 -5l331 1255h231l317 -1255l131 5v-115h-403v115l131 -5l-94 365h-406l-96 -365l131 5v-115h-404zM410 585h356l-177 675zM724 1693h90v-21q0 -104 -62.5 -163t-166.5 -59t-166.5 59t-62.5 163q0 7 1 21h89q0 -141 139 -141t139 141zM565 1752l-172 276h118
l175 -276h-121z" />
    <glyph glyph-name="glyph348" unicode="&#x1eb1;" horiz-adv-x="854" 
d="M813 0h-589q-135 0 -135 109v261q0 122 126 122h365v199q0 74 -87 74h-193q-60 0 -71 -41q-1 -4 -1 -97h-116v120q0 127 122 127h326q143 0 143 -132v-633l110 4v-113zM580 109v274h-283q-85 0 -85 -62v-143q0 -69 85 -69h283zM566 1263h90v-21q0 -104 -62.5 -163
t-166.5 -59t-166.5 59t-62.5 163q0 7 1 21h89q0 -141 139 -141t139 141zM407 1322l-172 276h118l175 -276h-121z" />
    <glyph glyph-name="glyph349" unicode="&#x1eb2;" horiz-adv-x="1168" 
d="M14 0v115l131 -5l331 1255h231l317 -1255l131 5v-115h-403v115l131 -5l-94 365h-406l-96 -365l131 5v-115h-404zM410 585h356l-177 675zM724 1693h90v-21q0 -104 -62.5 -163t-166.5 -59t-166.5 59t-62.5 163q0 7 1 21h89q0 -141 139 -141t139 141zM538 1700v136h67
q25 0 25 29v62q0 31 -28 31h-11q-33 0 -33 -34v-11h-68v64q0 47 52 47h106q55 0 55 -55v-143q0 -57 -57 -57h-40v-69h-68z" />
    <glyph glyph-name="glyph350" unicode="&#x1eb3;" horiz-adv-x="854" 
d="M813 0h-589q-135 0 -135 109v261q0 122 126 122h365v199q0 74 -87 74h-193q-60 0 -71 -41q-1 -4 -1 -97h-116v120q0 127 122 127h326q143 0 143 -132v-633l110 4v-113zM580 109v274h-283q-85 0 -85 -62v-143q0 -69 85 -69h283zM566 1263h90v-21q0 -104 -62.5 -163
t-166.5 -59t-166.5 59t-62.5 163q0 7 1 21h89q0 -141 139 -141t139 141zM380 1270v136h67q25 0 25 29v62q0 31 -28 31h-11q-33 0 -33 -34v-11h-68v64q0 47 52 47h106q55 0 55 -55v-143q0 -57 -57 -57h-40v-69h-68z" />
    <glyph glyph-name="glyph351" unicode="&#x1eb4;" horiz-adv-x="1168" 
d="M14 0v115l131 -5l331 1255h231l317 -1255l131 5v-115h-403v115l131 -5l-94 365h-406l-96 -365l131 5v-115h-404zM410 585h356l-177 675zM724 1693h90v-21q0 -104 -62.5 -163t-166.5 -59t-166.5 59t-62.5 163q0 7 1 21h89q0 -141 139 -141t139 141zM388 1772v43
q0 137 101 137q37 0 118.5 -33.5t107.5 -33.5q21 0 21 66h96q1 -28 1 -39q0 -137 -96 -137q-38 0 -123 34.5t-109 34.5q-21 0 -21 -72h-96z" />
    <glyph glyph-name="glyph352" unicode="&#x1eb5;" horiz-adv-x="854" 
d="M813 0h-589q-135 0 -135 109v261q0 122 126 122h365v199q0 74 -87 74h-193q-60 0 -71 -41q-1 -4 -1 -97h-116v120q0 127 122 127h326q143 0 143 -132v-633l110 4v-113zM580 109v274h-283q-85 0 -85 -62v-143q0 -69 85 -69h283zM566 1263h90v-21q0 -104 -62.5 -163
t-166.5 -59t-166.5 59t-62.5 163q0 7 1 21h89q0 -141 139 -141t139 141zM230 1342v43q0 137 101 137q37 0 118.5 -33.5t107.5 -33.5q21 0 21 66h96q1 -28 1 -39q0 -137 -96 -137q-38 0 -123 34.5t-109 34.5q-21 0 -21 -72h-96z" />
    <glyph glyph-name="glyph353" unicode="&#x1eb6;" horiz-adv-x="1168" 
d="M14 0v115l131 -5l331 1255h231l317 -1255l131 5v-115h-403v115l131 -5l-94 365h-406l-96 -365l131 5v-115h-404zM410 585h356l-177 675zM724 1693h90v-21q0 -104 -62.5 -163t-166.5 -59t-166.5 59t-62.5 163q0 7 1 21h89q0 -141 139 -141t139 141zM591 -119
q34 0 58 -23.5t24 -57.5q0 -36 -24 -59.5t-60 -23.5q-33 0 -56.5 24.5t-23.5 57.5q0 34 24 58t58 24z" />
    <glyph glyph-name="glyph354" unicode="&#x1eb7;" horiz-adv-x="854" 
d="M813 0h-589q-135 0 -135 109v261q0 122 126 122h365v199q0 74 -87 74h-193q-60 0 -71 -41q-1 -4 -1 -97h-116v120q0 127 122 127h326q143 0 143 -132v-633l110 4v-113zM580 109v274h-283q-85 0 -85 -62v-143q0 -69 85 -69h283zM566 1263h90v-21q0 -104 -62.5 -163
t-166.5 -59t-166.5 59t-62.5 163q0 7 1 21h89q0 -141 139 -141t139 141zM431 -119q34 0 58 -23.5t24 -57.5q0 -36 -24 -59.5t-60 -23.5q-33 0 -56.5 24.5t-23.5 57.5q0 34 24 58t58 24z" />
    <glyph glyph-name="glyph355" unicode="&#x1eb8;" horiz-adv-x="1044" 
d="M89 0v114l131 -4v1145l-131 -4v114h868v-338h-124v228h-475v-503h433v-110h-433v-532h475v228h124v-338h-868zM553 -119q34 0 58 -23.5t24 -57.5q0 -36 -24 -59.5t-60 -23.5q-33 0 -56.5 24.5t-23.5 57.5q0 34 24 58t58 24z" />
    <glyph glyph-name="glyph356" unicode="&#x1eb9;" horiz-adv-x="796" 
d="M708 227v-89q0 -81 -45 -112q-37 -26 -122 -26h-291q-86 0 -120 37.5t-34 124.5v561q0 81 32.5 116t113.5 35h310q156 0 156 -152v-336h-489v-200q0 -51 19 -66q16 -11 70 -11h187q73 0 88 22q9 15 9 96h116zM219 495h366v190q0 53 -18 68q-16 12 -69 12h-199
q-45 0 -62.5 -17t-17.5 -64v-189zM400 -119q34 0 58 -23.5t24 -57.5q0 -36 -24 -59.5t-60 -23.5q-33 0 -56.5 24.5t-23.5 57.5q0 34 24 58t58 24z" />
    <glyph glyph-name="glyph357" unicode="&#x1eba;" horiz-adv-x="1044" 
d="M89 0v114l131 -4v1145l-131 -4v114h868v-338h-124v228h-475v-503h433v-110h-433v-532h475v228h124v-338h-868zM524 1420v136h67q25 0 25 29v62q0 31 -28 31h-11q-33 0 -33 -34v-11h-68v64q0 47 52 47h106q55 0 55 -55v-143q0 -57 -57 -57h-40v-69h-68z" />
    <glyph glyph-name="glyph358" unicode="&#x1ebb;" horiz-adv-x="796" 
d="M708 227v-89q0 -81 -45 -112q-37 -26 -122 -26h-291q-86 0 -120 37.5t-34 124.5v561q0 81 32.5 116t113.5 35h310q156 0 156 -152v-336h-489v-200q0 -51 19 -66q16 -11 70 -11h187q73 0 88 22q9 15 9 96h116zM219 495h366v190q0 53 -18 68q-16 12 -69 12h-199
q-45 0 -62.5 -17t-17.5 -64v-189zM368 990v136h67q25 0 25 29v62q0 31 -28 31h-11q-33 0 -33 -34v-11h-68v64q0 47 52 47h106q55 0 55 -55v-143q0 -57 -57 -57h-40v-69h-68z" />
    <glyph glyph-name="glyph359" unicode="&#x1ebc;" horiz-adv-x="1044" 
d="M89 0v114l131 -4v1145l-131 -4v114h868v-338h-124v228h-475v-503h433v-110h-433v-532h475v228h124v-338h-868zM370 1465v43q0 137 101 137q37 0 118.5 -33.5t107.5 -33.5q21 0 21 66h96q1 -28 1 -39q0 -137 -96 -137q-38 0 -123 34.5t-109 34.5q-21 0 -21 -72h-96z" />
    <glyph glyph-name="glyph360" unicode="&#x1ebd;" horiz-adv-x="796" 
d="M708 227v-89q0 -81 -45 -112q-37 -26 -122 -26h-291q-86 0 -120 37.5t-34 124.5v561q0 81 32.5 116t113.5 35h310q156 0 156 -152v-336h-489v-200q0 -51 19 -66q16 -11 70 -11h187q73 0 88 22q9 15 9 96h116zM219 495h366v190q0 53 -18 68q-16 12 -69 12h-199
q-45 0 -62.5 -17t-17.5 -64v-189zM193 1042v43q0 137 101 137q37 0 118.5 -33.5t107.5 -33.5q21 0 21 66h96q1 -28 1 -39q0 -137 -96 -137q-38 0 -123 34.5t-109 34.5q-21 0 -21 -72h-96z" />
    <glyph glyph-name="glyph361" unicode="&#x1ebe;" horiz-adv-x="1044" 
d="M89 0v114l131 -4v1145l-131 -4v114h868v-338h-124v228h-475v-503h433v-110h-433v-532h475v228h124v-338h-868zM324 1430l166 277h127l165 -277h-111l-115 190l-114 -190h-118zM530 1750h-121l175 276h118z" />
    <glyph glyph-name="glyph362" unicode="&#x1ebf;" horiz-adv-x="796" 
d="M708 227v-89q0 -81 -45 -112q-37 -26 -122 -26h-291q-86 0 -120 37.5t-34 124.5v561q0 81 32.5 116t113.5 35h310q156 0 156 -152v-336h-489v-200q0 -51 19 -66q16 -11 70 -11h187q73 0 88 22q9 15 9 96h116zM219 495h366v190q0 53 -18 68q-16 12 -69 12h-199
q-45 0 -62.5 -17t-17.5 -64v-189zM169 1002l166 277h127l165 -277h-111l-115 190l-114 -190h-118zM374 1322h-121l175 276h118z" />
    <glyph glyph-name="glyph363" unicode="&#x1ec0;" horiz-adv-x="1044" 
d="M89 0v114l131 -4v1145l-131 -4v114h868v-338h-124v228h-475v-503h433v-110h-433v-532h475v228h124v-338h-868zM324 1430l166 277h127l165 -277h-111l-115 190l-114 -190h-118zM583 1750l-172 276h118l175 -276h-121z" />
    <glyph glyph-name="glyph364" unicode="&#x1ec1;" horiz-adv-x="796" 
d="M708 227v-89q0 -81 -45 -112q-37 -26 -122 -26h-291q-86 0 -120 37.5t-34 124.5v561q0 81 32.5 116t113.5 35h310q156 0 156 -152v-336h-489v-200q0 -51 19 -66q16 -11 70 -11h187q73 0 88 22q9 15 9 96h116zM219 495h366v190q0 53 -18 68q-16 12 -69 12h-199
q-45 0 -62.5 -17t-17.5 -64v-189zM169 1002l166 277h127l165 -277h-111l-115 190l-114 -190h-118zM427 1322l-172 276h118l175 -276h-121z" />
    <glyph glyph-name="glyph365" unicode="&#x1ec2;" horiz-adv-x="1044" 
d="M89 0v114l131 -4v1145l-131 -4v114h868v-338h-124v228h-475v-503h433v-110h-433v-532h475v228h124v-338h-868zM324 1430l166 277h127l165 -277h-111l-115 190l-114 -190h-118zM673 1698v136h67q25 0 25 29v62q0 31 -28 31h-11q-33 0 -33 -34v-11h-68v64q0 47 52 47h106
q55 0 55 -55v-143q0 -57 -57 -57h-40v-69h-68z" />
    <glyph glyph-name="glyph366" unicode="&#x1ec3;" horiz-adv-x="796" 
d="M708 227v-89q0 -81 -45 -112q-37 -26 -122 -26h-291q-86 0 -120 37.5t-34 124.5v561q0 81 32.5 116t113.5 35h310q156 0 156 -152v-336h-489v-200q0 -51 19 -66q16 -11 70 -11h187q73 0 88 22q9 15 9 96h116zM219 495h366v190q0 53 -18 68q-16 12 -69 12h-199
q-45 0 -62.5 -17t-17.5 -64v-189zM169 1002l166 277h127l165 -277h-111l-115 190l-114 -190h-118zM517 1270v136h67q25 0 25 29v62q0 31 -28 31h-11q-33 0 -33 -34v-11h-68v64q0 47 52 47h106q55 0 55 -55v-143q0 -57 -57 -57h-40v-69h-68z" />
    <glyph glyph-name="glyph367" unicode="&#x1ec4;" horiz-adv-x="1044" 
d="M89 0v114l131 -4v1145l-131 -4v114h868v-338h-124v228h-475v-503h433v-110h-433v-532h475v228h124v-338h-868zM324 1430l166 277h127l165 -277h-111l-115 190l-114 -190h-118zM367 1770v43q0 137 101 137q37 0 118.5 -33.5t107.5 -33.5q21 0 21 66h96q1 -28 1 -39
q0 -137 -96 -137q-38 0 -123 34.5t-109 34.5q-21 0 -21 -72h-96z" />
    <glyph glyph-name="glyph368" unicode="&#x1ec5;" horiz-adv-x="796" 
d="M708 227v-89q0 -81 -45 -112q-37 -26 -122 -26h-291q-86 0 -120 37.5t-34 124.5v561q0 81 32.5 116t113.5 35h310q156 0 156 -152v-336h-489v-200q0 -51 19 -66q16 -11 70 -11h187q73 0 88 22q9 15 9 96h116zM219 495h366v190q0 53 -18 68q-16 12 -69 12h-199
q-45 0 -62.5 -17t-17.5 -64v-189zM169 1002l166 277h127l165 -277h-111l-115 190l-114 -190h-118zM210 1342v43q0 137 101 137q37 0 118.5 -33.5t107.5 -33.5q21 0 21 66h96q1 -28 1 -39q0 -137 -96 -137q-38 0 -123 34.5t-109 34.5q-21 0 -21 -72h-96z" />
    <glyph glyph-name="glyph369" unicode="&#x1ec6;" horiz-adv-x="1044" 
d="M89 0v114l131 -4v1145l-131 -4v114h868v-338h-124v228h-475v-503h433v-110h-433v-532h475v228h124v-338h-868zM324 1430l166 277h127l165 -277h-111l-115 190l-114 -190h-118zM553 -119q34 0 58 -23.5t24 -57.5q0 -36 -24 -59.5t-60 -23.5q-33 0 -56.5 24.5t-23.5 57.5
q0 34 24 58t58 24z" />
    <glyph glyph-name="glyph370" unicode="&#x1ec7;" horiz-adv-x="796" 
d="M708 227v-89q0 -81 -45 -112q-37 -26 -122 -26h-291q-86 0 -120 37.5t-34 124.5v561q0 81 32.5 116t113.5 35h310q156 0 156 -152v-336h-489v-200q0 -51 19 -66q16 -11 70 -11h187q73 0 88 22q9 15 9 96h116zM219 495h366v190q0 53 -18 68q-16 12 -69 12h-199
q-45 0 -62.5 -17t-17.5 -64v-189zM169 1002l166 277h127l165 -277h-111l-115 190l-114 -190h-118zM400 -119q34 0 58 -23.5t24 -57.5q0 -36 -24 -59.5t-60 -23.5q-33 0 -56.5 24.5t-23.5 57.5q0 34 24 58t58 24z" />
    <glyph glyph-name="glyph371" unicode="&#x1ec8;" horiz-adv-x="573" 
d="M89 0v113l130 -4v1147l-130 -4v113h396v-113l-129 4v-1147l129 4v-113h-396zM238 1420v136h67q25 0 25 29v62q0 31 -28 31h-11q-33 0 -33 -34v-11h-68v64q0 47 52 47h106q55 0 55 -55v-143q0 -57 -57 -57h-40v-69h-68z" />
    <glyph glyph-name="glyph372" unicode="&#x1ec9;" horiz-adv-x="478" 
d="M68 874h239v-765l116 4v-113h-355v113l116 -4v656l-116 -4v113zM189 990v136h67q25 0 25 29v62q0 31 -28 31h-11q-33 0 -33 -34v-11h-68v64q0 47 52 47h106q55 0 55 -55v-143q0 -57 -57 -57h-40v-69h-68z" />
    <glyph glyph-name="glyph373" unicode="&#x1eca;" horiz-adv-x="573" 
d="M89 0v113l130 -4v1147l-130 -4v113h396v-113l-129 4v-1147l129 4v-113h-396zM288 -119q34 0 58 -23.5t24 -57.5q0 -36 -24 -59.5t-60 -23.5q-33 0 -56.5 24.5t-23.5 57.5q0 34 24 58t58 24z" />
    <glyph glyph-name="glyph374" unicode="&#x1ecb;" horiz-adv-x="478" 
d="M68 874h239v-765l116 4v-113h-355v113l116 -4v656l-116 -4v113zM234 1224q36 0 61 -25t25 -61t-25.5 -60.5t-61.5 -24.5q-35 0 -59.5 25t-24.5 60q0 36 24.5 61t60.5 25zM244 -119q34 0 58 -23.5t24 -57.5q0 -36 -24 -59.5t-60 -23.5q-33 0 -56.5 24.5t-23.5 57.5
q0 34 24 58t58 24z" />
    <glyph glyph-name="glyph375" unicode="&#x1ecc;" horiz-adv-x="996" 
d="M109 204v940q0 182 121 213q34 8 120 8h318q118 0 168.5 -53t50.5 -172v-926q0 -214 -215 -214h-351q-212 0 -212 204zM387 109h220q96 0 124 47q19 33 19 139v829q0 74 -22 101q-25 31 -101 31h-247q-78 0 -106 -29.5t-28 -108.5v-832q0 -101 20 -133q28 -44 121 -44z
M500 -119q34 0 58 -23.5t24 -57.5q0 -36 -24 -59.5t-60 -23.5q-33 0 -56.5 24.5t-23.5 57.5q0 34 24 58t58 24z" />
    <glyph glyph-name="glyph376" unicode="&#x1ecd;" horiz-adv-x="828" 
d="M273 874h292q93 0 125 -23q43 -30 43 -124v-580q0 -147 -168 -147h-295q-174 0 -174 131v606q0 86 48 115q36 22 129 22zM219 691v-483q0 -61 21.5 -80t81.5 -19h199q61 0 77 25q12 18 12 84v473q0 47 -24 62q-18 12 -65 12h-223q-79 0 -79 -74zM419 -119q34 0 58 -23.5
t24 -57.5q0 -36 -24 -59.5t-60 -23.5q-33 0 -56.5 24.5t-23.5 57.5q0 34 24 58t58 24z" />
    <glyph glyph-name="glyph377" unicode="&#x1ece;" horiz-adv-x="996" 
d="M109 204v940q0 182 121 213q34 8 120 8h318q118 0 168.5 -53t50.5 -172v-926q0 -214 -215 -214h-351q-212 0 -212 204zM387 109h220q96 0 124 47q19 33 19 139v829q0 74 -22 101q-25 31 -101 31h-247q-78 0 -106 -29.5t-28 -108.5v-832q0 -101 20 -133q28 -44 121 -44z
M462 1420v136h67q25 0 25 29v62q0 31 -28 31h-11q-33 0 -33 -34v-11h-68v64q0 47 52 47h106q55 0 55 -55v-143q0 -57 -57 -57h-40v-69h-68z" />
    <glyph glyph-name="glyph378" unicode="&#x1ecf;" horiz-adv-x="828" 
d="M273 874h292q93 0 125 -23q43 -30 43 -124v-580q0 -147 -168 -147h-295q-174 0 -174 131v606q0 86 48 115q36 22 129 22zM219 691v-483q0 -61 21.5 -80t81.5 -19h199q61 0 77 25q12 18 12 84v473q0 47 -24 62q-18 12 -65 12h-223q-79 0 -79 -74zM378 990v136h67
q25 0 25 29v62q0 31 -28 31h-11q-33 0 -33 -34v-11h-68v64q0 47 52 47h106q55 0 55 -55v-143q0 -57 -57 -57h-40v-69h-68z" />
    <glyph glyph-name="glyph379" unicode="&#x1ed0;" horiz-adv-x="996" 
d="M109 204v940q0 182 121 213q34 8 120 8h318q118 0 168.5 -53t50.5 -172v-926q0 -214 -215 -214h-351q-212 0 -212 204zM387 109h220q96 0 124 47q19 33 19 139v829q0 74 -22 101q-25 31 -101 31h-247q-78 0 -106 -29.5t-28 -108.5v-832q0 -101 20 -133q28 -44 121 -44z
M269 1430l166 277h127l165 -277h-111l-115 190l-114 -190h-118zM475 1750h-121l175 276h118z" />
    <glyph glyph-name="glyph380" unicode="&#x1ed1;" horiz-adv-x="828" 
d="M273 874h292q93 0 125 -23q43 -30 43 -124v-580q0 -147 -168 -147h-295q-174 0 -174 131v606q0 86 48 115q36 22 129 22zM219 691v-483q0 -61 21.5 -80t81.5 -19h199q61 0 77 25q12 18 12 84v473q0 47 -24 62q-18 12 -65 12h-223q-79 0 -79 -74zM185 1002l166 277h127
l165 -277h-111l-115 190l-114 -190h-118zM391 1322h-121l175 276h118z" />
    <glyph glyph-name="glyph381" unicode="&#x1ed2;" horiz-adv-x="996" 
d="M109 204v940q0 182 121 213q34 8 120 8h318q118 0 168.5 -53t50.5 -172v-926q0 -214 -215 -214h-351q-212 0 -212 204zM387 109h220q96 0 124 47q19 33 19 139v829q0 74 -22 101q-25 31 -101 31h-247q-78 0 -106 -29.5t-28 -108.5v-832q0 -101 20 -133q28 -44 121 -44z
M269 1430l166 277h127l165 -277h-111l-115 190l-114 -190h-118zM528 1750l-172 276h118l175 -276h-121z" />
    <glyph glyph-name="glyph382" unicode="&#x1ed3;" horiz-adv-x="828" 
d="M273 874h292q93 0 125 -23q43 -30 43 -124v-580q0 -147 -168 -147h-295q-174 0 -174 131v606q0 86 48 115q36 22 129 22zM219 691v-483q0 -61 21.5 -80t81.5 -19h199q61 0 77 25q12 18 12 84v473q0 47 -24 62q-18 12 -65 12h-223q-79 0 -79 -74zM185 1002l166 277h127
l165 -277h-111l-115 190l-114 -190h-118zM444 1322l-172 276h118l175 -276h-121z" />
    <glyph glyph-name="glyph383" unicode="&#x1ed4;" horiz-adv-x="996" 
d="M109 204v940q0 182 121 213q34 8 120 8h318q118 0 168.5 -53t50.5 -172v-926q0 -214 -215 -214h-351q-212 0 -212 204zM387 109h220q96 0 124 47q19 33 19 139v829q0 74 -22 101q-25 31 -101 31h-247q-78 0 -106 -29.5t-28 -108.5v-832q0 -101 20 -133q28 -44 121 -44z
M269 1430l166 277h127l165 -277h-111l-115 190l-114 -190h-118zM618 1698v136h67q25 0 25 29v62q0 31 -28 31h-11q-33 0 -33 -34v-11h-68v64q0 47 52 47h106q55 0 55 -55v-143q0 -57 -57 -57h-40v-69h-68z" />
    <glyph glyph-name="glyph384" unicode="&#x1ed5;" horiz-adv-x="828" 
d="M273 874h292q93 0 125 -23q43 -30 43 -124v-580q0 -147 -168 -147h-295q-174 0 -174 131v606q0 86 48 115q36 22 129 22zM219 691v-483q0 -61 21.5 -80t81.5 -19h199q61 0 77 25q12 18 12 84v473q0 47 -24 62q-18 12 -65 12h-223q-79 0 -79 -74zM185 1002l166 277h127
l165 -277h-111l-115 190l-114 -190h-118zM534 1270v136h67q25 0 25 29v62q0 31 -28 31h-11q-33 0 -33 -34v-11h-68v64q0 47 52 47h106q55 0 55 -55v-143q0 -57 -57 -57h-40v-69h-68z" />
    <glyph glyph-name="glyph385" unicode="&#x1ed6;" horiz-adv-x="996" 
d="M109 204v940q0 182 121 213q34 8 120 8h318q118 0 168.5 -53t50.5 -172v-926q0 -214 -215 -214h-351q-212 0 -212 204zM387 109h220q96 0 124 47q19 33 19 139v829q0 74 -22 101q-25 31 -101 31h-247q-78 0 -106 -29.5t-28 -108.5v-832q0 -101 20 -133q28 -44 121 -44z
M269 1430l166 277h127l165 -277h-111l-115 190l-114 -190h-118zM312 1770v43q0 137 101 137q37 0 118.5 -33.5t107.5 -33.5q21 0 21 66h96q1 -28 1 -39q0 -137 -96 -137q-38 0 -123 34.5t-109 34.5q-21 0 -21 -72h-96z" />
    <glyph glyph-name="glyph386" unicode="&#x1ed7;" horiz-adv-x="828" 
d="M273 874h292q93 0 125 -23q43 -30 43 -124v-580q0 -147 -168 -147h-295q-174 0 -174 131v606q0 86 48 115q36 22 129 22zM219 691v-483q0 -61 21.5 -80t81.5 -19h199q61 0 77 25q12 18 12 84v473q0 47 -24 62q-18 12 -65 12h-223q-79 0 -79 -74zM185 1002l166 277h127
l165 -277h-111l-115 190l-114 -190h-118zM227 1342v43q0 137 101 137q37 0 118.5 -33.5t107.5 -33.5q21 0 21 66h96q1 -28 1 -39q0 -137 -96 -137q-38 0 -123 34.5t-109 34.5q-21 0 -21 -72h-96z" />
    <glyph glyph-name="glyph387" unicode="&#x1ed8;" horiz-adv-x="996" 
d="M109 204v940q0 182 121 213q34 8 120 8h318q118 0 168.5 -53t50.5 -172v-926q0 -214 -215 -214h-351q-212 0 -212 204zM387 109h220q96 0 124 47q19 33 19 139v829q0 74 -22 101q-25 31 -101 31h-247q-78 0 -106 -29.5t-28 -108.5v-832q0 -101 20 -133q28 -44 121 -44z
M269 1430l166 277h127l165 -277h-111l-115 190l-114 -190h-118zM500 -119q34 0 58 -23.5t24 -57.5q0 -36 -24 -59.5t-60 -23.5q-33 0 -56.5 24.5t-23.5 57.5q0 34 24 58t58 24z" />
    <glyph glyph-name="glyph388" unicode="&#x1ed9;" horiz-adv-x="828" 
d="M273 874h292q93 0 125 -23q43 -30 43 -124v-580q0 -147 -168 -147h-295q-174 0 -174 131v606q0 86 48 115q36 22 129 22zM219 691v-483q0 -61 21.5 -80t81.5 -19h199q61 0 77 25q12 18 12 84v473q0 47 -24 62q-18 12 -65 12h-223q-79 0 -79 -74zM185 1002l166 277h127
l165 -277h-111l-115 190l-114 -190h-118zM419 -119q34 0 58 -23.5t24 -57.5q0 -36 -24 -59.5t-60 -23.5q-33 0 -56.5 24.5t-23.5 57.5q0 34 24 58t58 24z" />
    <glyph glyph-name="glyph389" unicode="&#x1eda;" horiz-adv-x="1021" 
d="M109 204v940q0 182 121 213q34 8 120 8h318q118 0 168.5 -53t50.5 -172v-926q0 -214 -215 -214h-351q-212 0 -212 204zM387 109h220q96 0 124 47q19 33 19 139v829q0 74 -22 101q-25 31 -101 31h-247q-78 0 -106 -29.5t-28 -108.5v-832q0 -101 20 -133q28 -44 121 -44z
M1056 1445l-181 -335h-102l185 335h98zM527 1434h-121l175 275h118z" />
    <glyph glyph-name="glyph390" unicode="&#x1edb;" horiz-adv-x="828" 
d="M273 874h292q93 0 125 -23q43 -30 43 -124v-580q0 -147 -168 -147h-295q-174 0 -174 131v606q0 86 48 115q36 22 129 22zM219 691v-483q0 -61 21.5 -80t81.5 -19h199q61 0 77 25q12 18 12 84v473q0 47 -24 62q-18 12 -65 12h-223q-79 0 -79 -74zM914 1022l-181 -335h-102
l185 335h98zM427 1002h-121l175 276h118z" />
    <glyph glyph-name="glyph391" unicode="&#x1edc;" horiz-adv-x="1021" 
d="M109 204v940q0 182 121 213q34 8 120 8h318q118 0 168.5 -53t50.5 -172v-926q0 -214 -215 -214h-351q-212 0 -212 204zM387 109h220q96 0 124 47q19 33 19 139v829q0 74 -22 101q-25 31 -101 31h-247q-78 0 -106 -29.5t-28 -108.5v-832q0 -101 20 -133q28 -44 121 -44z
M1056 1445l-181 -335h-102l185 335h98zM468 1434l-172 275h118l175 -275h-121z" />
    <glyph glyph-name="glyph392" unicode="&#x1edd;" horiz-adv-x="828" 
d="M273 874h292q93 0 125 -23q43 -30 43 -124v-580q0 -147 -168 -147h-295q-174 0 -174 131v606q0 86 48 115q36 22 129 22zM219 691v-483q0 -61 21.5 -80t81.5 -19h199q61 0 77 25q12 18 12 84v473q0 47 -24 62q-18 12 -65 12h-223q-79 0 -79 -74zM914 1022l-181 -335h-102
l185 335h98zM402 1002l-172 276h118l175 -276h-121z" />
    <glyph glyph-name="glyph393" unicode="&#x1ede;" horiz-adv-x="1021" 
d="M109 204v940q0 182 121 213q34 8 120 8h318q118 0 168.5 -53t50.5 -172v-926q0 -214 -215 -214h-351q-212 0 -212 204zM387 109h220q96 0 124 47q19 33 19 139v829q0 74 -22 101q-25 31 -101 31h-247q-78 0 -106 -29.5t-28 -108.5v-832q0 -101 20 -133q28 -44 121 -44z
M1056 1445l-181 -335h-102l185 335h98zM462 1420v136h67q25 0 25 29v62q0 31 -28 31h-11q-33 0 -33 -34v-11h-68v64q0 47 52 47h106q55 0 55 -55v-143q0 -57 -57 -57h-40v-69h-68z" />
    <glyph glyph-name="glyph394" unicode="&#x1edf;" horiz-adv-x="828" 
d="M273 874h292q93 0 125 -23q43 -30 43 -124v-580q0 -147 -168 -147h-295q-174 0 -174 131v606q0 86 48 115q36 22 129 22zM219 691v-483q0 -61 21.5 -80t81.5 -19h199q61 0 77 25q12 18 12 84v473q0 47 -24 62q-18 12 -65 12h-223q-79 0 -79 -74zM914 1022l-181 -335h-102
l185 335h98zM378 990v136h67q25 0 25 29v62q0 31 -28 31h-11q-33 0 -33 -34v-11h-68v64q0 47 52 47h106q55 0 55 -55v-143q0 -57 -57 -57h-40v-69h-68z" />
    <glyph glyph-name="glyph395" unicode="&#x1ee0;" horiz-adv-x="1021" 
d="M109 204v940q0 182 121 213q34 8 120 8h318q118 0 168.5 -53t50.5 -172v-926q0 -214 -215 -214h-351q-212 0 -212 204zM387 109h220q96 0 124 47q19 33 19 139v829q0 74 -22 101q-25 31 -101 31h-247q-78 0 -106 -29.5t-28 -108.5v-832q0 -101 20 -133q28 -44 121 -44z
M1056 1445l-181 -335h-102l185 335h98zM276 1465v43q0 137 101 137q37 0 118.5 -33.5t107.5 -33.5q21 0 21 66h96q1 -28 1 -39q0 -137 -96 -137q-38 0 -123 34.5t-109 34.5q-21 0 -21 -72h-96z" />
    <glyph glyph-name="glyph396" unicode="&#x1ee1;" horiz-adv-x="828" 
d="M273 874h292q93 0 125 -23q43 -30 43 -124v-580q0 -147 -168 -147h-295q-174 0 -174 131v606q0 86 48 115q36 22 129 22zM219 691v-483q0 -61 21.5 -80t81.5 -19h199q61 0 77 25q12 18 12 84v473q0 47 -24 62q-18 12 -65 12h-223q-79 0 -79 -74zM914 1022l-181 -335h-102
l185 335h98zM193 1042v43q0 137 101 137q37 0 118.5 -33.5t107.5 -33.5q21 0 21 66h96q1 -28 1 -39q0 -137 -96 -137q-38 0 -123 34.5t-109 34.5q-21 0 -21 -72h-96z" />
    <glyph glyph-name="glyph397" unicode="&#x1ee2;" horiz-adv-x="1021" 
d="M109 204v940q0 182 121 213q34 8 120 8h318q118 0 168.5 -53t50.5 -172v-926q0 -214 -215 -214h-351q-212 0 -212 204zM387 109h220q96 0 124 47q19 33 19 139v829q0 74 -22 101q-25 31 -101 31h-247q-78 0 -106 -29.5t-28 -108.5v-832q0 -101 20 -133q28 -44 121 -44z
M1056 1445l-181 -335h-102l185 335h98zM500 -119q34 0 58 -23.5t24 -57.5q0 -36 -24 -59.5t-60 -23.5q-33 0 -56.5 24.5t-23.5 57.5q0 34 24 58t58 24z" />
    <glyph glyph-name="glyph398" unicode="&#x1ee3;" horiz-adv-x="828" 
d="M273 874h292q93 0 125 -23q43 -30 43 -124v-580q0 -147 -168 -147h-295q-174 0 -174 131v606q0 86 48 115q36 22 129 22zM219 691v-483q0 -61 21.5 -80t81.5 -19h199q61 0 77 25q12 18 12 84v473q0 47 -24 62q-18 12 -65 12h-223q-79 0 -79 -74zM914 1022l-181 -335h-102
l185 335h98zM419 -119q34 0 58 -23.5t24 -57.5q0 -36 -24 -59.5t-60 -23.5q-33 0 -56.5 24.5t-23.5 57.5q0 34 24 58t58 24z" />
    <glyph glyph-name="glyph399" unicode="&#x1ee4;" horiz-adv-x="1158" 
d="M55 1365h396v-113l-129 4v-1010q0 -82 27.5 -109.5t109.5 -27.5h258q69 0 94.5 28t25.5 98v1021l-130 -4v113h396v-113l-129 4v-1034q0 -118 -50.5 -170t-167.5 -52h-366q-205 0 -205 232v1024l-130 -4v113zM587 -119q34 0 58 -23.5t24 -57.5q0 -36 -24 -59.5t-60 -23.5
q-33 0 -56.5 24.5t-23.5 57.5q0 34 24 58t58 24z" />
    <glyph glyph-name="glyph400" unicode="&#x1ee5;" horiz-adv-x="963" 
d="M68 874h239v-672q0 -60 26 -79q20 -14 79 -14h276v656l-116 -4v113h239v-765l116 4l-4 -113h-589q-78 0 -110 23q-40 29 -40 106v636l-116 -4v113zM512 -119q34 0 58 -23.5t24 -57.5q0 -36 -24 -59.5t-60 -23.5q-33 0 -56.5 24.5t-23.5 57.5q0 34 24 58t58 24z" />
    <glyph glyph-name="glyph401" unicode="&#x1ee6;" horiz-adv-x="1158" 
d="M55 1365h396v-113l-129 4v-1010q0 -82 27.5 -109.5t109.5 -27.5h258q69 0 94.5 28t25.5 98v1021l-130 -4v113h396v-113l-129 4v-1034q0 -118 -50.5 -170t-167.5 -52h-366q-205 0 -205 232v1024l-130 -4v113zM542 1420v136h67q25 0 25 29v62q0 31 -28 31h-11
q-33 0 -33 -34v-11h-68v64q0 47 52 47h106q55 0 55 -55v-143q0 -57 -57 -57h-40v-69h-68z" />
    <glyph glyph-name="glyph402" unicode="&#x1ee7;" horiz-adv-x="963" 
d="M68 874h239v-672q0 -60 26 -79q20 -14 79 -14h276v656l-116 -4v113h239v-765l116 4l-4 -113h-589q-78 0 -110 23q-40 29 -40 106v636l-116 -4v113zM448 990v136h67q25 0 25 29v62q0 31 -28 31h-11q-33 0 -33 -34v-11h-68v64q0 47 52 47h106q55 0 55 -55v-143
q0 -57 -57 -57h-40v-69h-68z" />
    <glyph glyph-name="glyph403" unicode="&#x1ee8;" horiz-adv-x="1178" 
d="M55 1365h396v-113l-129 4v-1010q0 -82 27.5 -109.5t109.5 -27.5h258q69 0 94.5 28t25.5 98v1021l-130 -4v113h396v-113l-129 4v-1034q0 -118 -50.5 -170t-167.5 -52h-366q-205 0 -205 232v1024l-130 -4v113zM1216 1445l-181 -335h-102l185 335h98zM608 1434h-121l175 275
h118z" />
    <glyph glyph-name="glyph404" unicode="&#x1ee9;" horiz-adv-x="963" 
d="M68 874h239v-672q0 -60 26 -79q20 -14 79 -14h276v656l-116 -4v113h239v-765l116 4l-4 -113h-589q-78 0 -110 23q-40 29 -40 106v636l-116 -4v113zM991 1022l-181 -335h-102l185 335h98zM493 1002h-121l175 276h118z" />
    <glyph glyph-name="glyph405" unicode="&#x1eea;" horiz-adv-x="1178" 
d="M55 1365h396v-113l-129 4v-1010q0 -82 27.5 -109.5t109.5 -27.5h258q69 0 94.5 28t25.5 98v1021l-130 -4v113h396v-113l-129 4v-1034q0 -118 -50.5 -170t-167.5 -52h-366q-205 0 -205 232v1024l-130 -4v113zM1216 1445l-181 -335h-102l185 335h98zM550 1434l-172 275h118
l175 -275h-121z" />
    <glyph glyph-name="glyph406" unicode="&#x1eeb;" horiz-adv-x="963" 
d="M68 874h239v-672q0 -60 26 -79q20 -14 79 -14h276v656l-116 -4v113h239v-765l116 4l-4 -113h-589q-78 0 -110 23q-40 29 -40 106v636l-116 -4v113zM991 1022l-181 -335h-102l185 335h98zM469 1002l-172 276h118l175 -276h-121z" />
    <glyph glyph-name="glyph407" unicode="&#x1eec;" horiz-adv-x="1178" 
d="M55 1365h396v-113l-129 4v-1010q0 -82 27.5 -109.5t109.5 -27.5h258q69 0 94.5 28t25.5 98v1021l-130 -4v113h396v-113l-129 4v-1034q0 -118 -50.5 -170t-167.5 -52h-366q-205 0 -205 232v1024l-130 -4v113zM1216 1445l-181 -335h-102l185 335h98zM542 1420v136h67
q25 0 25 29v62q0 31 -28 31h-11q-33 0 -33 -34v-11h-68v64q0 47 52 47h106q55 0 55 -55v-143q0 -57 -57 -57h-40v-69h-68z" />
    <glyph glyph-name="glyph408" unicode="&#x1eed;" horiz-adv-x="963" 
d="M68 874h239v-672q0 -60 26 -79q20 -14 79 -14h276v656l-116 -4v113h239v-765l116 4l-4 -113h-589q-78 0 -110 23q-40 29 -40 106v636l-116 -4v113zM991 1022l-181 -335h-102l185 335h98zM448 990v136h67q25 0 25 29v62q0 31 -28 31h-11q-33 0 -33 -34v-11h-68v64
q0 47 52 47h106q55 0 55 -55v-143q0 -57 -57 -57h-40v-69h-68z" />
    <glyph glyph-name="glyph409" unicode="&#x1eee;" horiz-adv-x="1178" 
d="M55 1365h396v-113l-129 4v-1010q0 -82 27.5 -109.5t109.5 -27.5h258q69 0 94.5 28t25.5 98v1021l-130 -4v113h396v-113l-129 4v-1034q0 -118 -50.5 -170t-167.5 -52h-366q-205 0 -205 232v1024l-130 -4v113zM1216 1445l-181 -335h-102l185 335h98zM366 1465v43
q0 137 101 137q37 0 118.5 -33.5t107.5 -33.5q21 0 21 66h96q1 -28 1 -39q0 -137 -96 -137q-38 0 -123 34.5t-109 34.5q-21 0 -21 -72h-96z" />
    <glyph glyph-name="glyph410" unicode="&#x1eef;" horiz-adv-x="963" 
d="M68 874h239v-672q0 -60 26 -79q20 -14 79 -14h276v656l-116 -4v113h239v-765l116 4l-4 -113h-589q-78 0 -110 23q-40 29 -40 106v636l-116 -4v113zM991 1022l-181 -335h-102l185 335h98zM263 1042v43q0 137 101 137q37 0 118.5 -33.5t107.5 -33.5q21 0 21 66h96
q1 -28 1 -39q0 -137 -96 -137q-38 0 -123 34.5t-109 34.5q-21 0 -21 -72h-96z" />
    <glyph glyph-name="glyph411" unicode="&#x1ef0;" horiz-adv-x="1178" 
d="M55 1365h396v-113l-129 4v-1010q0 -82 27.5 -109.5t109.5 -27.5h258q69 0 94.5 28t25.5 98v1021l-130 -4v113h396v-113l-129 4v-1034q0 -118 -50.5 -170t-167.5 -52h-366q-205 0 -205 232v1024l-130 -4v113zM1216 1445l-181 -335h-102l185 335h98zM587 -119
q34 0 58 -23.5t24 -57.5q0 -36 -24 -59.5t-60 -23.5q-33 0 -56.5 24.5t-23.5 57.5q0 34 24 58t58 24z" />
    <glyph glyph-name="glyph412" unicode="&#x1ef1;" horiz-adv-x="963" 
d="M68 874h239v-672q0 -60 26 -79q20 -14 79 -14h276v656l-116 -4v113h239v-765l116 4l-4 -113h-589q-78 0 -110 23q-40 29 -40 106v636l-116 -4v113zM991 1022l-181 -335h-102l185 335h98zM512 -119q34 0 58 -23.5t24 -57.5q0 -36 -24 -59.5t-60 -23.5q-33 0 -56.5 24.5
t-23.5 57.5q0 34 24 58t58 24z" />
    <glyph glyph-name="glyph413" unicode="&#x1ef2;" horiz-adv-x="1107" 
d="M361 0v113l130 -4v521l-347 626l-130 -4v113h415v-113l-130 4l257 -494l255 494l-129 -4v113h412v-113l-130 4l-336 -626v-521l129 4v-113h-396zM530 1434l-172 275h118l175 -275h-121z" />
    <glyph glyph-name="glyph414" unicode="&#x1ef3;" horiz-adv-x="869" 
d="M229 -355l147 421l-246 699l-116 -4v113h353v-113l-116 4l98 -278q54 -161 82 -282q23 91 64 208l124 352l-116 -4v113h353v-113l-116 4l-392 -1120h-119zM409 1002l-172 276h118l175 -276h-121z" />
    <glyph glyph-name="glyph415" unicode="&#x1ef4;" horiz-adv-x="1107" 
d="M361 0v113l130 -4v521l-347 626l-130 -4v113h415v-113l-130 4l257 -494l255 494l-129 -4v113h412v-113l-130 4l-336 -626v-521l129 4v-113h-396zM562 -119q34 0 58 -23.5t24 -57.5q0 -36 -24 -59.5t-60 -23.5q-33 0 -56.5 24.5t-23.5 57.5q0 34 24 58t58 24z" />
    <glyph glyph-name="glyph416" unicode="&#x1ef5;" horiz-adv-x="869" 
d="M229 -355l147 421l-246 699l-116 -4v113h353v-113l-116 4l98 -278q54 -161 82 -282q23 91 64 208l124 352l-116 -4v113h353v-113l-116 4l-392 -1120h-119zM582 -119q34 0 58 -23.5t24 -57.5q0 -36 -24 -59.5t-60 -23.5q-33 0 -56.5 24.5t-23.5 57.5q0 34 24 58t58 24z
" />
    <glyph glyph-name="glyph417" unicode="&#x1ef6;" horiz-adv-x="1107" 
d="M361 0v113l130 -4v521l-347 626l-130 -4v113h415v-113l-130 4l257 -494l255 494l-129 -4v113h412v-113l-130 4l-336 -626v-521l129 4v-113h-396zM519 1420v136h67q25 0 25 29v62q0 31 -28 31h-11q-33 0 -33 -34v-11h-68v64q0 47 52 47h106q55 0 55 -55v-143
q0 -57 -57 -57h-40v-69h-68z" />
    <glyph glyph-name="glyph418" unicode="&#x1ef7;" horiz-adv-x="869" 
d="M229 -355l147 421l-246 699l-116 -4v113h353v-113l-116 4l98 -278q54 -161 82 -282q23 91 64 208l124 352l-116 -4v113h353v-113l-116 4l-392 -1120h-119zM393 990v136h67q25 0 25 29v62q0 31 -28 31h-11q-33 0 -33 -34v-11h-68v64q0 47 52 47h106q55 0 55 -55v-143
q0 -57 -57 -57h-40v-69h-68z" />
    <glyph glyph-name="glyph419" unicode="&#x1ef8;" horiz-adv-x="1107" 
d="M361 0v113l130 -4v521l-347 626l-130 -4v113h415v-113l-130 4l257 -494l255 494l-129 -4v113h412v-113l-130 4l-336 -626v-521l129 4v-113h-396zM331 1465v43q0 137 101 137q37 0 118.5 -33.5t107.5 -33.5q21 0 21 66h96q1 -28 1 -39q0 -137 -96 -137q-38 0 -123 34.5
t-109 34.5q-21 0 -21 -72h-96z" />
    <glyph glyph-name="glyph420" unicode="&#x1ef9;" horiz-adv-x="869" 
d="M229 -355l147 421l-246 699l-116 -4v113h353v-113l-116 4l98 -278q54 -161 82 -282q23 91 64 208l124 352l-116 -4v113h353v-113l-116 4l-392 -1120h-119zM217 1042v43q0 137 101 137q37 0 118.5 -33.5t107.5 -33.5q21 0 21 66h96q1 -28 1 -39q0 -137 -96 -137
q-38 0 -123 34.5t-109 34.5q-21 0 -21 -72h-96z" />
    </font>
</defs>
</svg>
